<?xml version="1.0" encoding="UTF-8" standalone="no"?>
<!-- Created with Inkscape (http://www.inkscape.org/) -->

<svg
   xmlns:dc="http://purl.org/dc/elements/1.1/"
   xmlns:cc="http://creativecommons.org/ns#"
   xmlns:rdf="http://www.w3.org/1999/02/22-rdf-syntax-ns#"
   xmlns:svg="http://www.w3.org/2000/svg"
   xmlns="http://www.w3.org/2000/svg"
   xmlns:sodipodi="http://sodipodi.sourceforge.net/DTD/sodipodi-0.dtd"
   xmlns:inkscape="http://www.inkscape.org/namespaces/inkscape"
   width="370.09"
   height="220.36"
   id="svg3050"
   version="1.1"
   inkscape:version="0.48.4 r9939"
   sodipodi:docname="signature2.pdf">
  <defs
     id="defs3052" />
  <sodipodi:namedview
     id="base"
     pagecolor="#ffffff"
     bordercolor="#666666"
     borderopacity="1.0"
     inkscape:pageopacity="0.0"
     inkscape:pageshadow="2"
     inkscape:zoom="2.631153"
     inkscape:cx="147.34347"
     inkscape:cy="79.147855"
     inkscape:document-units="px"
     inkscape:current-layer="layer1"
     showgrid="false"
     inkscape:window-width="1920"
     inkscape:window-height="1003"
     inkscape:window-x="-9"
     inkscape:window-y="-9"
     inkscape:window-maximized="1" />
  <metadata
     id="metadata3055">
    <rdf:RDF>
      <cc:Work
         rdf:about="">
        <dc:format>image/svg+xml</dc:format>
        <dc:type
           rdf:resource="http://purl.org/dc/dcmitype/StillImage" />
        <dc:title></dc:title>
      </cc:Work>
    </rdf:RDF>
  </metadata>
  <g
     inkscape:label="Layer 1"
     inkscape:groupmode="layer"
     id="layer1"
     transform="translate(0,-831.99377)">
    <path
       style="fill:#000000;fill-opacity:1;fill-rule:nonzero;stroke:none"
       id="path3017"
       d="m 19.870293,912.7198 c 0.03,-4.11049 0.11057,-8.21259 -0.27516,-12.30887 -0.41974,-3.50172 -0.55368,-7.02329 -0.64326,-10.54477 -0.0726,-3.33989 -0.0713,-6.68072 -0.074,-10.02119 0.003,-3.31943 0.004,-6.63885 0.008,-9.95828 0.002,-3.51112 6.7e-4,-7.02223 4.4e-4,-10.53335 0.48676,-3.43872 0.79274,-4.77146 3.48632,-7.10026 2.80514,-2.04916 5.71051,-2.5838 9.13282,-2.62718 2.9798,0.0108 5.92148,0.58351 8.26298,2.49478 0.3701,0.3021 1.76328,1.88089 2.02858,2.17579 2.36569,2.82256 3.70242,6.23811 4.71279,9.70034 0.42553,2.27689 1.093,4.65526 0.84945,6.99594 -0.12545,1.20562 -0.45781,1.80827 -0.90498,2.9217 -0.95989,2.7755 -3.42793,4.07684 -5.87144,5.47023 -2.42813,0.97795 -4.78964,2.13629 -7.31242,2.88404 -2.99299,0.61442 -6.37468,0.75457 -9.3348,-0.0951 -0.23842,-0.17998 -0.47684,-0.35997 -0.71526,-0.53996 0,0 1.95578,-0.17847 1.95578,-0.17847 l 0,0 c 0.23386,0.15737 0.46773,0.31474 0.70159,0.47211 1.5151,0.38724 0.82219,0.28609 2.45766,0.37848 0.42866,0.0242 0.86271,-0.004 1.28654,0.0626 0.24922,0.0393 -1.00668,0.0584 -0.75716,0.0209 3.57629,-0.53761 -1.50225,0.49234 2.46588,-0.36314 2.52906,-0.71966 4.86699,-1.89883 7.30638,-2.83956 2.4196,-1.35328 4.90283,-2.61568 5.86662,-5.34329 0.43535,-1.06347 0.78279,-1.69651 0.90652,-2.85074 0.24891,-2.32204 -0.42399,-4.68524 -0.84509,-6.94353 -1.00583,-3.43888 -2.34756,-6.82464 -4.71424,-9.61608 -1.02714,-1.12985 -1.89969,-2.16692 -3.27145,-2.91676 -1.2479,-0.68214 -1.84971,-0.83834 -3.20272,-1.32645 -0.0824,-0.0443 0.0354,-0.17964 0.0532,-0.26946 -3.40407,0.0143 -6.29068,0.48477 -9.11004,2.49356 -2.70316,2.2943 -2.98017,3.50509 -3.48411,6.93949 -4.5e-4,3.51114 -0.003,7.02228 -0.003,10.53341 6.9e-4,3.31939 -0.003,6.63877 -0.003,9.95816 -7.5e-4,3.33893 -6.6e-4,6.67817 0.0681,10.01657 0.0896,3.51746 0.2309,7.03425 0.64502,10.53235 0.37854,4.10256 0.27885,8.21002 0.28867,12.32599 0,0 -1.96103,0 -1.96103,0 z"
       inkscape:connector-curvature="0" />
    <path
       style="fill:#000000;fill-opacity:1;fill-rule:nonzero;stroke:none"
       id="path3019"
       d="m 29.668923,887.39613 c -2.24566,1.45338 -5.31882,3.3398 -6.67839,5.6985 -0.28677,0.49752 -0.42785,1.06196 -0.64178,1.59294 -0.50569,2.4984 -1.19378,5.61673 -0.0208,8.06919 0.21189,0.443 0.57036,0.80469 0.85554,1.20704 1.87745,2.9482 4.90897,4.39762 8.24586,5.24027 2.83913,0.5797 4.3292,0.29228 7.06623,-1.13965 1.9872,-1.64387 3.06888,-3.92179 3.66868,-6.33972 0.31237,-1.79545 0.47253,-3.80411 -0.48841,-5.46306 -0.16607,-0.28669 -1.57152,-1.91043 -1.77119,-2.14448 -1.93478,-2.09556 -4.42136,-3.14059 -7.19583,-3.70757 -0.53881,-0.0763 -1.07763,-0.15277 -1.61645,-0.22915 0,0 1.9311,-0.26858 1.9311,-0.26858 l 0,0 c 0.53947,0.0804 1.07893,0.16084 1.61839,0.24126 2.79019,0.60399 5.28364,1.70554 7.21238,3.83308 0.32295,0.38088 1.52774,1.76365 1.77434,2.20635 0.95007,1.70557 0.80896,3.73939 0.4921,5.57665 -0.6004,2.46912 -1.70164,4.77679 -3.68142,6.49722 -3.34689,1.84328 -7.21839,1.91108 -10.9441,1.18524 -3.35693,-0.8918 -6.37266,-2.40415 -8.26086,-5.37567 -0.28594,-0.42284 -0.64448,-0.80701 -0.85782,-1.26853 -1.15884,-2.50689 -0.48709,-5.63999 0.0255,-8.18941 0.21407,-0.54907 0.35257,-1.13189 0.6422,-1.64722 1.34175,-2.38735 4.45249,-4.28501 6.67849,-5.79357 0,0 1.94623,0.21887 1.94623,0.21887 z"
       inkscape:connector-curvature="0" />
    <path
       style="fill:#000000;fill-opacity:1;fill-rule:nonzero;stroke:none"
       id="path3021"
       d="m 42.623403,885.93843 c -0.0176,4.11894 -0.0103,8.23796 -0.009,12.35693 -0.0391,3.34622 0.58479,6.41777 2.69291,9.09934 1.25473,1.1978 2.74506,1.50242 4.43931,1.60441 0.24313,0.0146 -0.8387,0.13094 -0.72626,-0.0787 0.17422,-0.32521 0.68136,-0.31549 1.02204,-0.47324 1.65157,-0.88029 2.0144,-2.00744 2.74501,-3.54117 0.26622,-0.55886 1.03371,-1.74727 1.36581,-2.27587 1.61136,-2.32826 1.66853,-5.13291 2.43801,-7.73123 1.08726,-3.32167 1.44037,-6.81186 1.70361,-10.2714 0.35079,-3.79405 0.10248,-7.57207 -0.23471,-11.35377 -0.31427,-3.59536 -0.45324,-7.20104 -0.52351,-10.80764 -0.19432,-1.11565 -0.26494,-1.74997 -0.6,-2.82116 -0.0915,-0.29263 -0.18881,-0.5883 -0.34333,-0.85478 -0.0656,-0.11316 -0.41887,-0.31914 -0.30141,-0.25709 2.04484,1.08012 1.7144,0.4318 1.40275,2.30036 -0.39079,4.82439 -0.36147,9.66576 0.004,14.48835 0.43037,4.322 0.59113,8.66232 0.68358,13.00163 0.13719,4.02168 0.24848,8.11163 1.03644,12.07118 0.68684,3.51211 1.40393,7.05143 3.66255,9.94822 -0.95233,-0.1468 3.5739,2.14 3.12856,1.2682 -0.15891,-0.311 -0.90913,0.1531 -1.05947,-0.1619 -0.12951,-0.2715 0.51717,-0.3427 0.70588,-0.5791 0.23391,-0.293 0.35971,-0.6542 0.53956,-0.98125 0.9764,-2.77283 1.97966,-5.48751 2.47069,-8.3892 0.57197,-2.71203 1.764,-5.60825 4.96138,-5.83475 0.90681,0.14912 1.8672,0.11389 2.72044,0.44737 0.791214,0.30923 1.882344,4.3536 2.088814,5.17943 0.31794,2.37832 0.68253,4.77639 2.32965,6.65005 -0.81659,-0.0716 3.4794,1.75351 2.86263,0.98702 -0.23534,-0.29248 -0.95243,0.0389 -1.10357,-0.30161 -0.12218,-0.27567 0.52247,-0.33735 0.71693,-0.57057 0.24245,-0.29075 0.38142,-0.65017 0.57213,-0.97525 1.07665,-2.97631 1.10355,-6.18358 1.20996,-9.30376 0.005,-0.0984 -0.0754,-0.34218 0.0138,-0.29534 3.19997,1.6799 1.75684,1.80239 1.95902,4.70572 0.0423,0.60773 0.45518,2.75298 0.55244,3.28278 0.23471,1.71412 0.62554,3.43899 1.5438,4.94546 0.18864,0.3095 0.40731,0.6112 0.68397,0.8502 0.23852,0.2061 1.04828,0.2315 0.83241,0.46 -0.25839,0.2734 -0.7584,-0.091 -1.1376,-0.1371 0.23233,-0.1492 0.50433,-0.2523 0.697,-0.4478 1.09264,-1.1082 2.08376,-4.86339 2.66786,-6.37773 0.71487,-2.59319 2.72756,-4.32681 4.5332,-6.21405 0.85252,-1.10087 1.36424,-2.63772 3.037783,-0.54102 0.27159,0.34026 -0.0783,0.85778 -0.1103,1.28721 -0.0418,0.56052 -0.074,1.12165 -0.11094,1.68249 -0.16488,3.8502 -0.877293,6.5129 1.25553,9.9795 1.0615,0.9716 0.95959,1.0584 2.39193,1.5945 2.00932,0.7521 2.0105,0.4507 4.23522,-0.978 3.42815,-2.20959 4.76861,-6.04957 6.32808,-9.55944 1.62298,-3.95047 2.91981,-7.99864 3.6672,-12.1896 0.56723,-4.19575 0.61001,-8.43529 0.64679,-12.66024 -0.0926,-1.85704 0.13284,-3.73644 9.1e-4,-5.59181 -0.1165,-1.63848 -0.57536,-3.2928 -0.91275,-4.89719 -1.06773,-3.11376 -2.26376,-5.14962 -5.05791,-7.05937 -1.94689,-0.98992 -0.98832,-0.64788 -2.94489,-1.13019 -0.17243,-0.0425 0.64616,0.0116 0.51662,0.12998 -0.33124,0.30285 -0.86901,0.29249 -1.24722,0.538 -1.12018,0.72714 -1.18064,1.24067 -1.79795,2.40317 -1.32604,3.74028 -1.42707,7.73847 -1.52511,11.65447 -0.13054,4.82266 0.45701,9.60303 1.28638,14.34501 1.23208,4.51612 2.10549,9.114 3.21769,13.65571 0.14849,0.19338 0.67646,0.49154 0.44546,0.58012 -0.46688,0.17905 -1.09358,0.11539 -1.49468,-0.17775 -0.2008,-0.14675 0.29017,-0.39951 0.41467,-0.61154 0.58076,-0.98909 0.92417,-1.92276 1.62065,-2.85488 2.79841,-2.44607 6.5763,-2.4832 9.9946,-1.09269 2.18565,1.44433 1.77222,3.60163 2.06626,5.81908 0.31463,3.57712 3.23671,5.67237 5.85129,7.82866 2.37734,1.6753 4.3393,3.8426 7.06602,4.9949 0,0 -1.94684,0.2178 -1.94684,0.2178 l 0,0 c -2.69066,-1.2227 -4.68134,-3.3596 -7.05261,-5.0495 -2.65671,-2.19322 -5.55327,-4.33786 -5.87415,-7.96741 -0.28866,-2.15882 0.13,-4.26921 -2.05298,-5.6189 -0.40153,-0.15382 -0.89133,-0.17302 -1.20458,-0.46145 -0.11769,-0.10837 0.52751,-0.27498 0.36896,-0.30799 -1.93334,-0.40248 -3.86075,0.59831 -5.26148,1.7588 -0.23917,0.30649 -0.51955,0.5864 -0.71751,0.91946 -0.70592,1.18768 -1.73242,5.70527 -4.17942,2.06665 -1.06253,-4.55605 -1.97029,-9.14575 -3.19231,-13.66742 -0.83549,-4.75321 -1.41849,-9.54723 -1.30047,-14.38127 0.0996,-3.94389 0.21368,-7.96506 1.52325,-11.73829 0.26002,-0.51165 0.44576,-1.06577 0.78006,-1.53496 1.94999,-2.73684 6.07467,-2.03002 8.58047,-0.49701 2.78569,1.97165 4.01684,4.04323 5.06716,7.20073 0.33882,1.61868 0.7942,3.28181 0.90913,4.93489 0.12907,1.85644 -0.0912,3.73584 -0.002,5.59387 -0.0406,4.23516 -0.0908,8.48411 -0.64817,12.69095 -0.75088,4.20658 -2.04721,8.26734 -3.67449,12.23371 -1.56244,3.5321 -2.89815,7.41944 -6.32346,9.66704 -0.46708,0.3161 -0.89495,0.6954 -1.40124,0.9481 -3.00156,1.498 -6.89064,0.6815 -9.117013,-1.6479 -2.09947,-3.52951 -1.42864,-6.19714 -1.25393,-10.09201 0.0198,-0.32132 0.17229,-2.94141 0.20635,-2.97473 4.434833,-4.33781 1.11018,0.85704 0.87843,0.69936 -1.77634,1.88292 -3.82901,3.56137 -4.53676,6.14055 -0.63951,1.64664 -1.5363,5.21193 -2.66082,6.48923 -0.19554,0.2222 -0.47197,0.3626 -0.70796,0.5439 -0.9199,0.018 -1.84799,0.1763 -2.75969,0.056 -1.955,-0.2583 -2.83409,-5.04219 -3.05488,-6.41654 -0.32014,-1.72933 -0.55125,-3.28113 -0.5497,-5.03926 4.8e-4,-0.5486 -0.30592,-1.184 -10e-4,-1.6458 0.42964,-0.65074 1.26418,-0.94952 1.96106,-1.32289 0.0871,-0.0467 -0.0202,0.19227 -0.0303,0.28842 -0.13591,3.14929 -0.14501,6.38003 -1.21182,9.39238 -0.19088,0.34779 -0.32901,0.72821 -0.57265,1.04336 -1.49041,1.92793 -4.77639,1.08216 -6.38707,-0.14689 -1.60868,-1.93344 -2.016304,-4.32442 -2.332224,-6.73633 -0.35833,-1.41841 -0.75055,-2.97234 -1.49455,-4.25856 -0.16012,-0.27681 -0.73675,-0.47776 -0.58948,-0.76122 0.18473,-0.35556 0.7817,-0.24071 1.17255,-0.36106 -3.19165,-0.003 -4.3894,2.92894 -4.95195,5.5738 -0.48473,2.92373 -1.4999,5.65215 -2.46328,8.44935 -0.18566,0.36054 -0.67188,1.58854 -1.25678,1.73084 -2.28114,0.5551 -4.29813,0.2903 -5.96406,-1.2459 -2.22889,-2.94454 -2.9696,-6.49568 -3.65877,-10.03391 -0.782,-3.9718 -0.89417,-8.06998 -1.02792,-12.10306 -0.0985,-4.33614 -0.25825,-8.67258 -0.68499,-12.99191 -0.36177,-4.83718 -0.37101,-9.69178 -0.0198,-14.53192 0.30172,-1.89392 -0.13063,-1.69507 2.51836,-2.41886 0.48049,-0.13128 1.20919,3.72073 1.22682,4.07776 0.0706,3.60225 0.2025,7.20415 0.52073,10.79496 0.33621,3.79171 0.58269,7.58001 0.2363,11.384 -0.26442,3.47147 -0.61954,6.9748 -1.69584,10.31132 -0.79263,2.6071 -0.82226,5.43691 -2.44006,7.78167 -0.25591,0.40481 -1.15883,1.80624 -1.36335,2.23772 -0.77516,1.63537 -1.01055,2.683 -2.75302,3.68334 -0.3445,0.18349 -0.64515,0.49257 -1.03348,0.55037 -2.72623,0.40602 -5.53648,0.16085 -7.60168,-1.6887 -2.08315,-2.74103 -2.72807,-5.83527 -2.68446,-9.22163 0.002,-4.11897 0.009,-8.23799 -0.009,-12.35693 0,0 1.96103,0 1.96103,0 z"
       inkscape:connector-curvature="0" />
    <path
       style="fill:#000000;fill-opacity:1;fill-rule:nonzero;stroke:none"
       id="path3023"
       d="m 86.170237,884.33767 c 0.43708,-0.24775 0.87416,-0.49548 1.31124,-0.74322 0,0 1.94239,0.19642 1.94239,0.19642 l 0,0 c -0.43482,0.25243 -0.86965,0.50486 -1.30448,0.75727 0,0 -1.94915,-0.21047 -1.94915,-0.21047 z"
       inkscape:connector-curvature="0" />
    <path
       style="fill:#000000;fill-opacity:1;fill-rule:nonzero;stroke:none"
       id="path3025"
       d="m 63.758173,870.97007 c 3.83398,-1.18976 7.80056,-1.53111 11.77308,-1.91039 0,0 1.930954,0.27792 1.930954,0.27792 l 0,0 c -3.965384,0.39286 -7.937814,0.66701 -11.764724,1.87961 0,0 -1.93931,-0.24714 -1.93931,-0.24714 z"
       inkscape:connector-curvature="0" />
    <path
       style="fill:#000000;fill-opacity:1;fill-rule:nonzero;stroke:none"
       id="path3027"
       d="m 156.26756,910.8171 c -0.89175,-4.14865 -1.24865,-8.37426 -1.51006,-12.59663 -0.17735,-4.09968 -0.36755,-8.20165 0.04,-12.29126 0.43532,-3.60083 0.56268,-7.22508 0.65577,-10.84646 -0.15284,-3.41106 -0.53778,-6.80579 -0.73814,-10.21448 0.0401,-3.13868 0.30845,-6.22622 1.18492,-9.2476 0.78062,-1.74548 1.33665,-4.31524 3.5051,-4.93015 0.43515,-0.12339 0.89701,-0.12793 1.34551,-0.19189 4.05742,-0.10661 7.35899,1.54192 10.59653,3.73293 2.89888,2.01088 4.63475,5.00346 6.57163,7.81734 1.81217,3.19508 2.02772,6.88087 2.23864,10.4461 0.25767,3.46835 0.10996,6.8994 -0.75986,10.27252 -1.06639,2.48077 -3.66824,2.86917 -6.13178,3.15011 -0.0885,0.20377 -2.13183,-0.0132 -2.21768,0.14996 -0.0392,0.0745 0.17716,-0.0188 0.2584,0.009 0.40858,0.14061 1.2596,0.6716 1.5384,0.83421 2.42612,1.20198 4.7326,2.75349 6.77701,4.50336 2.31623,2.09003 2.8287,4.8096 3.22412,7.73538 0.51916,3.5802 -0.60999,6.90432 -3.17094,9.48373 -1.89945,2.16863 -4.23174,3.42673 -7.11348,3.83893 -2.01815,-0.022 -4.09428,0.1896 -6.09712,-0.1122 -1.4213,-0.2141 -2.86534,-0.7562 -4.25152,-1.1234 -0.51099,-0.1522 -1.02198,-0.3044 -1.53297,-0.4566 0,0 1.93554,-0.241 1.93554,-0.241 l 0,0 c 0.51124,0.1503 1.02247,0.3006 1.5337,0.4509 2.61186,0.694 5.23574,1.4126 6.4741,1.2097 2.87628,-0.3373 5.21419,-1.5586 7.10545,-3.7134 2.57357,-2.49918 3.68668,-5.78699 3.17157,-9.31169 -0.39966,-2.8862 -0.91824,-5.55607 -3.22847,-7.5981 -2.06461,-1.72423 -4.34466,-3.27712 -6.77695,-4.46877 -0.29503,-0.16787 -1.84579,-0.75006 -1.79957,-1.32884 0.0106,-0.13341 2.24682,0.0427 2.23595,-0.13748 2.38955,-0.24579 5.01477,-0.53544 6.10995,-2.92091 0.87945,-3.35219 1.03715,-6.76388 0.77219,-10.21454 -0.21294,-3.53334 -0.42158,-7.189 -2.24354,-10.3454 -1.92512,-2.7997 -3.65891,-5.76939 -6.56274,-7.74619 -1.41975,-0.94118 -2.90332,-1.81809 -4.46833,-2.52027 -0.45851,-0.20573 -0.93412,-0.37587 -1.41401,-0.52879 -0.46835,-0.14924 -1.02851,-0.0947 -1.427,-0.37652 -0.16955,-0.11989 0.39221,-0.14437 0.58832,-0.21656 -3.58304,0.36811 -3.5557,1.98836 -4.83402,4.9007 -0.88206,3.02171 -1.14431,6.04462 -1.18608,9.18454 0.20051,3.41372 0.58135,6.81394 0.73258,10.2301 -0.0966,3.62561 -0.21568,7.25487 -0.65018,10.86025 -0.42039,4.07908 -0.23352,8.17129 -0.0519,12.26143 0.25721,4.21313 0.61223,8.43208 1.53104,12.56624 0,0 -1.9601,0.042 -1.9601,0.042 z"
       inkscape:connector-curvature="0" />
    <path
       style="fill:#000000;fill-opacity:1;fill-rule:nonzero;stroke:none"
       id="path3029"
       d="m 179.87039,902.20256 c 1.45136,-2.16852 2.07673,-4.71399 3.24088,-7.01165 0.47313,-0.93383 1.45071,-2.41246 2.02795,-3.31247 1.56976,-2.28178 4.91825,-4.99319 7.68857,-2.49819 1.32587,2.35959 1.23409,5.1664 1.30018,7.78267 0.36344,2.60053 -0.54063,5.66004 0.2425,8.18449 0.12311,0.39683 0.3715,0.74626 0.55725,1.11939 0.59928,0.65155 0.69438,0.97824 1.55826,1.1927 0.30226,0.075 1.08895,0.33544 0.93289,0.073 -0.17975,-0.3022 -0.92875,0.0704 -1.04415,-0.26011 -0.10061,-0.28814 0.54107,-0.31513 0.77126,-0.52148 0.27653,-0.24789 0.49135,-0.55372 0.73703,-0.83057 1.15842,-1.73082 1.32206,-3.76304 1.78098,-5.71181 0.12341,-0.52406 0.69372,-2.20548 0.86546,-2.72311 0.13514,-0.4648 0.29471,-0.92355 0.40541,-1.39442 0.16528,-0.70305 0.24774,-1.44734 0.31083,-2.16673 0.012,-0.13698 -0.1197,-0.41522 0.0218,-0.41188 2.20267,0.0521 1.9619,-0.0121 1.8913,1.18029 -0.0487,3.17788 -0.44016,6.39353 0.3833,9.49799 0.46034,0.98007 0.9413,1.95418 2.06779,2.32416 0.25707,0.0844 1.06386,0.19081 0.8066,0.10694 -1.40244,-0.4572 -1.71609,0.1251 -0.4322,-0.88514 1.85877,-1.96886 2.37879,-4.6736 3.05504,-7.18179 0.40393,-1.47998 0.1879,-4.2034 2.77141,-1.58981 0.0567,0.0573 0.11561,2.31222 0.12896,2.73038 0.11745,2.03182 -0.59763,5.52558 1.88591,6.4406 -0.41244,-0.0163 -0.89321,0.17252 -1.23731,-0.049 -0.20039,-0.12896 0.45569,-0.18077 0.62901,-0.34255 0.21971,-0.20509 0.3446,-0.48826 0.52017,-0.73017 0.68192,-0.93955 1.27677,-1.81839 1.80091,-2.85202 0.71949,-1.32495 0.86633,-3.04073 1.84295,-4.23593 0.62866,-0.76935 1.22081,-1.00653 2.06908,-1.49508 3.7935,-1.06592 5.29525,0.17237 6.88299,3.14991 1.06309,2.48135 1.19667,5.17008 1.42162,7.8118 0.14091,0.74088 0.42693,1.9437 -1.91652,-0.78496 -0.20468,-0.23832 0.0638,-5.08766 0.11351,-5.70459 0.15019,-2.53516 1.20049,-4.97671 3.65333,-6.09723 0.86406,0.0295 1.74605,-0.084 2.5922,0.0886 0.31288,0.0638 0.51726,0.36966 0.74108,0.5914 1.37447,1.36173 1.71068,3.31208 2.11608,5.09834 0.0841,0.54687 0.13695,1.09912 0.25216,1.64061 0.12587,0.59167 0.54741,2.14402 0.96699,2.68149 0.41625,0.5332 2.12681,1.41526 1.90335,0.78227 -0.11562,-0.32747 -0.69167,-0.16738 -1.03751,-0.25106 1.79454,-1.65877 3.02713,-3.94495 4.19189,-6.06408 0.21798,-0.5073 0.46141,-1.00498 0.6539,-1.52191 0.46993,-1.26199 0.60765,-1.84968 0.80174,-3.14769 0.13947,-0.93281 0.14483,-1.70768 0.52527,-2.57631 2.21126,-1.68922 5.50846,-0.75638 7.93754,0.0844 2.66497,1.27995 4.33128,3.5245 5.978,5.83986 1.3587,2.20211 1.34201,3.8422 0.31838,6.14542 -2.8985,2.96593 -5.33204,0.75184 -6.68723,-2.04585 -1.34814,-3.40293 0.23761,-5.42854 2.36185,-7.99043 2.05367,-1.59082 3.37331,-4.7269 6.19597,-5.0864 0.87474,0.12936 1.7993,0.0772 2.62421,0.38808 1.07109,0.40366 1.28353,5.47893 1.33694,6.41399 0.29481,2.24095 -0.38325,4.95783 0.75808,7.05277 0.18028,0.3309 0.46885,0.59432 0.70327,0.89149 -0.19714,-0.13392 1.88272,1.47444 2.04639,0.78058 0.38998,-1.65329 -3.16469,1.28985 -0.005,-0.64289 0.91581,-0.56026 1.08423,-1.00822 1.68551,-1.87131 1.30017,-2.76911 2.42315,-5.60706 2.92666,-8.61965 0.13192,-0.83494 0.12605,-1.57665 2.00975,0.45211 0.013,0.014 -0.0775,2.29014 -0.0699,2.69611 0.0248,1.32083 0.10221,1.43731 0.34319,2.74583 0.18207,0.40731 0.29142,0.85327 0.5462,1.22199 0.84032,1.21606 3.303,2.83097 4.91149,2.44598 0.27303,-0.0654 -0.53043,-0.18155 -0.79564,-0.27232 2.43938,-1.49452 2.26079,-4.36244 2.99485,-6.76053 1.00262,-2.18262 3.51123,-2.4366 5.68487,-2.75601 0.82349,0.0631 1.67631,-0.0316 2.47046,0.18931 0.44931,0.12494 0.74811,3.58204 0.89652,4.05944 0.14368,0.46215 0.38135,0.89163 0.57203,1.33744 0.62108,1.02473 1.29176,2.0069 2.4673,2.48111 0.27987,0.1129 1.18662,0.1859 0.88423,0.20527 -0.39966,0.0256 -0.97606,0.14526 -1.18623,-0.18593 -0.16077,-0.25334 0.56286,-0.23524 0.84429,-0.35286 2.01171,-1.36138 2.40242,-3.65004 2.81369,-5.8381 0.4047,1.04198 -0.0458,-0.8342 0.18424,-0.72473 0.69427,0.33037 1.52345,0.54093 2.00948,1.12494 0.11487,0.13803 0.0121,5.16285 0.0115,5.3558 0.10696,6.93356 0.97179,13.83744 1.38799,20.76254 0.38565,7.1541 0.48235,14.3192 0.54501,21.4816 0.05,4.3061 0.27148,8.5839 -0.70506,12.8054 -1.17352,3.0904 -4.00225,4.1715 -5.92977,0.7544 -1.23164,-3.0142 -1.50963,-6.2461 -2.1869,-9.3883 -0.98161,-4.1505 -1.50081,-8.3776 -1.81527,-12.6192 -0.329,-2.6184 -0.0569,-5.1899 0.3528,-7.779 0.10215,-0.6455 0.13344,-1.3073 0.3229,-1.9338 0.17674,-0.5845 0.51102,-1.1126 0.76655,-1.6689 2.02605,-3.8528 3.92611,-7.7593 5.81731,-11.674 1.68761,-3.07546 3.86965,-5.84446 6.1699,-8.50504 2.05538,-2.28165 3.4051,-4.31381 4.46287,-7.16834 0.26776,-0.99728 0.26639,-1.96919 2.06656,0.28731 0.006,0.008 -0.24122,3.98119 -0.25255,4.24516 0.37889,3.20464 0.5681,4.90902 3.7686,6.30069 0.88797,0.22589 2.12141,0.62918 3.06225,0.48705 0.12848,-0.0194 -0.28524,-0.26651 -0.1776,-0.33736 0.55265,-0.36377 1.23306,-0.49768 1.84385,-0.75942 2.50423,-1.07316 1.60559,-0.63252 3.899,-2.0848 2.27252,-1.57973 4.62246,-3.31196 6.4124,-5.42892 0.85131,-1.00687 1.5927,-2.09833 2.44379,-3.10538 2.71107,-4.05573 4.05833,-8.78563 5.40003,-13.39604 1.09421,-3.70777 1.62405,-7.51937 1.86065,-11.35893 0.15455,-3.58138 0.12384,-7.16746 0.11366,-10.75112 -0.0733,-2.51403 0.2887,-5.45277 -1.1565,-7.71355 -0.23467,-0.36711 -0.57396,-0.66038 -0.86093,-0.99058 -2.39057,-1.70518 -4.98462,-3.03309 -7.99367,-3.102 0.33155,0.13494 0.93595,0.0603 0.99466,0.40481 0.0564,0.33095 -0.59722,0.35829 -0.8211,0.61371 -0.27945,0.31882 -0.47843,0.7002 -0.66249,1.07884 -0.66737,1.37287 -0.87637,2.87961 -1.11718,4.36044 -0.46801,4.59503 -0.36906,9.2282 -0.37172,13.8406 0.0125,6.08325 0.0219,12.16649 0.0288,18.24975 0.005,5.45317 0.0128,10.90635 0.0168,16.35952 -0.041,0.80195 0.80715,5.74452 -1.95033,2.22005 -0.0442,-0.0565 0.44978,-2.17125 0.56874,-2.69473 1.15421,-3.72416 2.9423,-5.46097 6.64679,-6.74308 3.08088,-0.62706 6.83412,-0.6706 8.85285,2.01064 0.1866,1.18845 -0.74917,1.8609 -1.29787,2.77825 -0.41248,0.68963 -0.44233,1.09086 -0.63502,1.8759 -0.23183,3.15346 2.5522,5.47378 4.93232,7.18327 0.88497,0.7352 1.9479,1.1659 2.94791,1.715 0,0 -1.95754,0.2015 -1.95754,0.2015 l 0,0 c -0.99751,-0.5497 -2.04242,-1.015 -2.92823,-1.7413 -2.42677,-1.78415 -5.20408,-4.16902 -4.95398,-7.40219 0.18335,-0.77676 0.23107,-1.26313 0.63451,-1.95466 0.49153,-0.84253 1.43241,-1.44451 1.29734,-2.53251 -0.60177,-0.74992 -0.50941,-0.76286 -1.48688,-1.30739 -0.3745,-0.20863 -0.95345,-0.16989 -1.17459,-0.53004 -0.12456,-0.20287 0.86477,-0.26818 0.63574,-0.34754 -0.44966,-0.15579 -2.50766,0.21931 -2.93109,0.28484 -3.68613,1.20662 -5.47913,2.85624 -6.62989,6.55033 -0.10825,0.48078 -0.22323,0.96018 -0.32474,1.44235 -0.0847,0.40249 0.0626,0.91849 -0.23398,1.21135 -2.96035,2.92283 -1.80514,-0.86815 -1.9504,-2.22002 0.003,-5.4531 0.007,-10.90622 0.001,-16.35933 -0.008,-6.08334 -0.0252,-12.16666 -0.0366,-18.24999 -5.6e-4,-4.62195 -0.10926,-9.26485 0.3486,-13.87015 0.23664,-1.46678 0.8089,-5.68741 2.6029,-6.23671 0.93216,-0.28541 1.92657,-0.3212 2.88986,-0.48179 3.01257,0.15903 5.6513,1.48133 8.00929,3.26153 0.28753,0.3477 0.62719,0.66018 0.8626,1.04308 1.41865,2.30746 1.08881,5.24029 1.15103,7.79138 0.006,3.58752 0.0427,7.17767 -0.11221,10.76284 -0.23718,3.85393 -0.77595,7.67827 -1.87477,11.39945 -1.35016,4.63281 -2.70495,9.37992 -5.39492,13.47438 -1.70263,1.99568 -0.88554,0.95785 -2.44673,3.11684 -1.78249,2.13556 -4.14664,3.87875 -6.41888,5.47315 -3.89351,2.52143 -7.74631,4.23633 -12.50123,2.72377 -3.18134,-1.49747 -3.41151,-3.2845 -3.77629,-6.52357 0.0154,-0.36713 0.0956,-4.11116 0.24194,-4.2561 0.53495,-0.52978 1.36973,-0.65906 2.07031,-0.95502 0.0325,-0.0137 -0.0253,0.0643 -0.038,0.0965 -0.0601,0.21862 -0.12026,0.43724 -0.18039,0.65586 -1.00559,2.69861 -1.72474,3.79997 -3.56074,6.01802 -0.32385,0.39124 -0.60874,0.81146 -0.91311,1.21718 -2.30553,2.63942 -4.47026,5.40496 -6.17486,8.45506 -1.88638,3.9151 -3.80054,7.8138 -5.81322,11.6718 -0.25596,0.5395 -0.59261,1.0496 -0.76786,1.6188 -0.19234,0.6248 -0.22242,1.2863 -0.3249,1.9308 -0.40967,2.5762 -0.6738,5.1326 -0.35006,7.7381 0.31069,4.2335 0.82407,8.4532 1.81479,12.5937 0.67532,3.1238 0.95157,6.3404 2.20003,9.3293 0.1871,0.3108 0.326,0.6542 0.56129,0.9323 0.18742,0.2216 0.84341,0.3001 0.68679,0.5431 -0.20926,0.3248 -0.84391,0.4218 -1.16539,0.1997 -0.24917,-0.172 0.55745,-0.2633 0.78319,-0.4636 0.58168,-0.5161 0.83151,-1.2429 1.15412,-1.9102 0.99515,-4.236 0.77826,-8.4374 0.73164,-12.7616 -0.0478,-7.1595 -0.13587,-14.3214 -0.52573,-21.4724 -0.42026,-6.9292 -1.28967,-13.83607 -1.4186,-20.77345 -1.8e-4,-0.12083 -0.0796,-5.29345 -0.0345,-5.34832 0.45503,-0.55346 1.28158,-0.67607 1.92494,-1.00942 0.0266,-0.0138 -0.0493,0.0335 -0.074,0.0503 -0.0409,0.19549 -0.0818,0.39097 -0.12272,0.58646 -0.43333,2.24063 -0.82378,4.56328 -2.82457,6.02154 -3.04317,1.39273 -5.42591,0.38789 -6.91181,-2.29208 -0.60803,-1.45704 -0.62406,-1.24213 -0.85611,-2.78956 -0.10251,-0.68355 -0.0348,-1.33282 -0.29481,-1.98705 -0.0684,-0.17208 -0.4863,-0.36592 -0.32119,-0.45702 0.41727,-0.23022 0.95383,-0.10344 1.43075,-0.15517 -2.10839,0.29072 -4.64229,0.45706 -5.67444,2.54058 -0.77718,2.45511 -0.58415,5.3357 -3.00942,6.95532 -1.02732,0.0982 -2.04996,0.27121 -3.08197,0.29462 -2.45165,0.0557 -4.69836,-1.77262 -5.47564,-3.90747 -0.12263,-0.67325 -0.65726,-5.10394 -0.28515,-5.47925 0.49519,-0.49943 1.2894,-0.62686 1.98603,-0.77823 0.12302,-0.0267 -0.0451,0.24094 -0.0677,0.36141 -0.5303,3.03396 -1.64752,5.89677 -2.93741,8.69932 -0.25602,0.38331 -0.46797,0.79808 -0.76807,1.14994 -1.61676,1.89556 -4.96977,2.18619 -6.86526,0.59405 -0.23501,-0.31712 -0.52382,-0.60252 -0.70504,-0.95136 -1.10961,-2.136 -0.46985,-4.83055 -0.75212,-7.10378 -0.0857,-1.48727 -0.12313,-3.01131 -0.48619,-4.46739 -0.0897,-0.35983 -0.19262,-0.72099 -0.35596,-1.05551 -0.12465,-0.25528 -0.67324,-0.46917 -0.49896,-0.69539 0.2622,-0.34032 0.84898,-0.2066 1.27348,-0.30991 -0.28608,0.005 -0.58821,-0.0764 -0.85824,0.0154 -2.36262,0.80416 -3.38396,3.58734 -5.33283,4.91515 -2.08258,2.50505 -3.71268,4.4279 -2.35572,7.77709 0.45856,0.91517 0.57837,1.36211 1.31662,2.07942 0.24661,0.23961 0.92425,0.28591 0.83447,0.61331 -0.0993,0.36196 -0.77589,0.14664 -1.09897,0.35117 -0.55914,0.35397 2.88771,-0.83434 1.72214,-0.99203 1.0289,-2.24103 1.02567,-3.8071 -0.31008,-5.95146 -1.64383,-2.28397 -3.2921,-4.50657 -5.96786,-5.72107 -0.42947,-0.14245 -0.85231,-0.30536 -1.28841,-0.42735 -0.41337,-0.11564 -0.95791,0.0159 -1.2568,-0.28462 -0.19203,-0.19307 1.08296,-0.10944 0.81205,-0.16253 -0.75179,-0.14731 -1.69069,0.24356 -2.29672,0.63612 -0.40603,0.84499 -0.40099,1.60833 -0.54077,2.52976 -0.20008,1.31895 -0.33301,1.90464 -0.80512,3.18857 -0.19224,0.5228 -0.43532,1.02662 -0.65298,1.53994 -1.18026,2.17307 -2.4548,4.43232 -4.19372,6.21513 -0.46429,0.0449 -2.88358,0.56076 -3.84665,0.072 -1.80329,-0.91527 -1.79996,-3.47328 -2.13579,-5.12742 -0.32605,-1.42035 -0.59888,-2.92166 -1.4231,-4.17259 -0.19282,-0.29266 -0.43573,-0.55545 -0.69784,-0.79189 -0.21935,-0.19786 -0.93284,-0.28241 -0.73525,-0.50082 0.28964,-0.32015 0.87274,-0.089 1.3091,-0.13349 -2.48059,0.96796 -3.50037,3.42409 -3.65071,5.89148 -0.0529,0.63215 -0.005,5.5746 -0.10642,5.69194 -1.90031,2.20312 -1.90418,1.61963 -2.01054,0.79715 -0.19172,-2.61883 -0.34894,-5.28214 -1.4104,-7.73468 -0.59635,-1.09033 -1.10052,-1.95683 -2.15352,-2.68347 -0.23844,-0.16454 -0.86413,-0.18932 -0.74576,-0.44912 0.13632,-0.29919 1.22915,-0.35908 1.00338,-0.11628 -0.2474,0.26607 -0.72454,0.13734 -1.08681,0.20601 -0.78837,0.42857 -1.46412,0.70016 -2.05832,1.39331 -1.00103,1.16773 -1.12492,2.91219 -1.8437,4.22503 -0.34594,0.69805 -2.15774,4.03239 -2.96252,4.13468 -0.87919,0.11174 -1.77327,-0.0186 -2.65991,-0.028 -2.40869,-1.20473 -1.78854,-4.4601 -1.88595,-6.65373 -0.0162,-0.47743 -0.0243,-0.95519 -0.0487,-1.4323 -0.0217,-0.42542 -0.36007,-0.93946 -0.0897,-1.27483 3.04783,-3.78134 1.1676,1.28059 1.14631,1.60901 -0.68181,2.54282 -1.21835,5.27196 -3.05595,7.29808 -1.3657,1.18068 -0.72291,0.89712 -3.46787,0.98571 -1.54696,0.0499 -2.36325,-1.51286 -2.87894,-2.64947 -0.80177,-3.12778 -0.43216,-6.35723 -0.39915,-9.55526 0.0632,-1.22205 -0.18231,-1.14614 2.04788,-1.15816 3e-4,0 -0.0481,0.76971 -0.13278,1.34954 -0.20687,1.41655 -0.20861,1.23083 -0.62454,2.67089 -0.13499,0.40541 -0.76977,2.28229 -0.86785,2.69552 -0.46941,1.97767 -0.62911,4.04123 -1.77695,5.81291 -0.25476,0.3027 -1.01204,1.3373 -1.51553,1.45949 -2.23732,0.54293 -3.97486,0.63123 -5.3494,-1.16216 -0.18516,-0.39131 -0.43216,-0.76027 -0.55548,-1.17394 -0.75981,-2.5487 0.11435,-5.58969 -0.23919,-8.20878 -0.0701,-2.55644 0.0468,-5.34261 -1.30788,-7.62417 -0.0442,-0.0345 -2.13164,-1.39939 0.45405,-0.72445 0.33862,0.0884 -0.70269,0.0998 -1.02277,0.23882 -1.37254,0.59626 -2.38252,1.76419 -3.21914,2.92607 -0.53895,0.83391 -1.59245,2.42166 -2.03149,3.28218 -1.17387,2.30078 -1.78809,4.85769 -3.22354,7.04265 0,0 -1.95705,-0.10631 -1.95705,-0.10631 z"
       inkscape:connector-curvature="0" />
    <path
       style="fill:#000000;fill-opacity:1;fill-rule:nonzero;stroke:none"
       id="path3851"
       d="m 162.21941,129.48584 c -1.63306,-0.37111 -3.2307,-0.85349 -4.8862,-1.13399 -1.47556,-0.25526 -2.92702,-0.13065 -4.35832,0.28001 -2.13885,0.54579 -4.20647,1.32008 -6.31217,1.9752 -0.93887,0.4079 -1.9584,0.61188 -2.91309,0.96726 -0.84246,0.31361 -1.65107,0.78758 -2.4614,1.17596 -1.38947,0.62934 -2.19601,1.23627 -2.99342,2.54485 -0.60714,1.26329 -0.74937,2.68617 -0.63017,4.06787 0.7586,2.17054 2.75839,3.48071 4.64384,4.60549 4.17395,2.43605 8.99838,3.22027 13.71929,3.838 4.18271,0.44812 8.43512,0.43894 12.61512,-0.0611 2.65493,-0.31759 4.62426,-0.75927 7.24538,-1.27771 4.37774,-0.99174 8.66817,-2.36904 12.80987,-4.09979 2.17439,-0.90864 3.01569,-1.355 5.09426,-2.36971 3.27081,-1.75469 6.66709,-3.41255 9.44775,-5.91025 0.27003,-0.37457 0.76426,-0.87012 0.72765,-1.41489 -0.0865,-1.2868 -2.93036,-1.70875 -3.78136,-1.93682 -5.26208,-1.18243 -10.68713,-1.32045 -16.05504,-1.12379 -9.55534,0.3095 -18.97458,2.17748 -28.31441,4.08954 -7.71213,1.75966 -15.44344,3.58771 -22.93277,6.16532 -1.16932,0.40244 -2.31754,0.86381 -3.47631,1.29572 -2.8158,1.02167 -5.44418,2.44846 -7.87985,4.18405 -0.87926,0.62654 -2.26887,1.73529 -3.0493,2.54721 -0.35311,0.36736 -0.64726,0.78715 -0.9709,1.18072 -0.7216,1.08641 -1.66465,2.47855 -0.84423,3.78743 0.44937,0.7169 1.01605,0.93264 1.72349,1.36754 3.09907,1.31605 6.71462,1.64534 10.05189,1.42783 1.19925,-0.0782 2.39328,-0.2225 3.58991,-0.33374 1.38269,-0.23716 2.77499,-0.42385 4.14807,-0.71147 1.56432,-0.32769 3.11306,-0.7275 4.65894,-1.13337 5.42735,-1.42494 10.79474,-3.13185 16.0263,-5.16447 1.81996,-0.70712 3.60595,-1.49876 5.40893,-2.24813 8.08926,-3.62905 15.92262,-7.87342 23.21468,-12.93016 1.17068,-0.81182 2.29921,-1.6828 3.44881,-2.52421 2.46258,-1.87784 4.72775,-4.00746 6.84798,-6.26167 0.78661,-0.83631 1.63617,-1.75951 2.20029,-2.78042 0.17303,-0.31314 0.26013,-0.66656 0.3902,-0.99984 -0.01,-0.2459 0.0603,-0.50865 -0.0297,-0.7377 -0.22701,-0.57759 -1.03733,-0.7856 -1.53295,-0.853 -1.51409,-0.20589 -2.07978,-0.001 -3.56068,0.33758 -1.08522,0.24825 -2.16515,0.51905 -3.24773,0.77858 -9.14355,2.92528 -17.93994,6.91464 -26.3852,11.46541 -2.12318,1.14409 -4.19708,2.37737 -6.29563,3.56606 -7.1489,4.34324 -14.12778,9.05682 -20.20092,14.84583 -2.48441,2.36818 -3.20063,3.34469 -5.29656,5.84099 -0.73096,1.08299 -2.48884,3.57128 -1.47057,5.0794 1.13379,1.67922 4.41771,0.82693 5.89471,0.6049 1.5671,-0.41614 3.15846,-0.74983 4.7013,-1.24843 4.2211,-1.36413 9.21318,-3.4967 13.17504,-5.3231 8.96432,-4.13251 17.59168,-8.90822 26.23557,-13.6597 9.00111,-5.02574 17.77945,-10.43002 26.44261,-16.01377 4.63537,-2.98768 9.48107,-6.15387 13.99944,-9.33931 1.73583,-1.22376 3.42717,-2.50944 5.14075,-3.76416 1.60242,-1.2916 4.77664,-3.63278 6.20531,-5.44803 0.39414,-0.50079 0.82755,-1.08322 0.83374,-1.72047 0.0145,-1.48999 -2.84577,-1.31554 -3.23413,-1.29176 -1.19885,0.0734 -2.36531,0.41934 -3.54797,0.62902 -1.97389,0.50433 -3.96787,0.93575 -5.92168,1.513 -5.56312,1.64365 -10.51701,3.53019 -15.93548,5.66811 -10.45019,4.12325 -20.71514,8.67712 -30.98974,13.21369 -12.52051,5.68953 -24.87614,11.80312 -36.55129,19.09586 -4.71863,2.94744 -5.89069,3.87489 -10.13568,6.91478 -1.38439,1.11773 -3.44156,2.51198 -4.49744,4.12037 -0.20031,0.30514 -0.44686,0.72689 -0.28929,1.05615 0.33492,0.69981 2.17351,0.0881 2.37607,0.0406 1.14021,-0.2674 2.27346,-0.56369 3.41019,-0.84553 1.51255,-0.54032 3.0412,-1.03752 4.53765,-1.62097 3.05795,-1.19226 9.18876,-3.87921 12.01067,-5.15654 5.73011,-2.59372 8.67452,-3.99414 14.28902,-6.93751 2.44165,-1.28002 4.84742,-2.62735 7.27113,-3.94103 10.15222,-5.813 20.21424,-11.83009 29.72826,-18.65317 1.20846,-0.86666 2.38494,-1.77705 3.57742,-2.66557 0.56262,-0.45906 3.30985,-2.54116 3.96188,-3.51956 0.12287,-0.18437 0.1629,-0.51553 -9.3e-4,-0.66469 -0.14766,-0.13443 -0.39173,0.0792 -0.58437,0.13181 -0.95055,0.25949 -1.90806,0.49768 -2.84451,0.80421 -1.44861,0.47419 -2.8712,1.02446 -4.3068,1.53668 -10.89086,4.27571 -21.54254,9.1281 -32.21424,13.91569 -14.24569,6.39097 -7.95169,3.51272 -22.18558,10.18686 -13.74359,6.99584 -27.75294,13.88922 -40.04288,23.32179 -1.1521,0.88424 -2.232144,1.85859 -3.348214,2.78788 -0.251872,0.29004 -2.528609,2.31524 -2.175388,3.45407 0.111605,0.35983 0.614256,0.50689 0.988812,0.54741 0.556519,0.0602 1.117262,-0.11966 1.658885,-0.26102 1.238106,-0.32313 2.465725,-0.69368 3.668815,-1.12944 1.75262,-0.63479 3.46071,-1.3864 5.19106,-2.0796 14.89766,-6.48041 29.45525,-13.74686 43.65592,-21.63679 3.09098,-1.71736 6.14334,-3.50334 9.21501,-5.25501 7.76862,-4.58377 15.50172,-9.22798 23.22062,-13.89494 3.94729,-2.38659 7.88416,-4.7693 11.70616,-7.35158 0.10201,-0.15355 0.47946,-0.52316 0.30602,-0.46067 -0.37268,0.13429 -0.60964,0.51702 -0.96244,0.69719 -1.30125,0.66454 -2.65778,1.21483 -3.98367,1.82875 -2.14072,0.99121 -4.27422,1.99797 -6.41613,2.98661 -5.82394,2.68819 -14.12936,6.46787 -19.77394,9.04292 -18.19891,8.19739 -36.09927,17.06856 -53.66034,26.55652 -10.7033,5.78282 -14.138179,7.87561 -24.440272,13.85368 -8.080861,4.98431 -16.413606,9.62445 -24.164769,15.13019 -1.284917,0.9127 -2.552645,1.85806 -3.729351,2.90657 -0.513883,0.4579 -1.273479,0.9033 -1.31719,1.5902 -0.02569,0.4037 0.807271,0.0534 1.210906,0.08 3.030897,-1.4238 5.831765,-2.72221 8.877255,-4.28074 6.382291,-3.26616 12.651275,-6.74962 19.009193,-10.06297 10.177924,-5.30409 17.459698,-8.934 27.833918,-14.17063 26.73131,-13.8322 53.84523,-26.90266 80.93556,-40.01122 16.846,-8.1515 33.70225,-16.28179 50.54979,-24.430119 24.55956,-12.053518 49.3368,-23.650844 74.09995,-35.276741 15.72997,-7.384966 2.92183,-1.439007 13.98098,-6.55872 0.63625,-0.286351 1.227,-0.710634 1.90875,-0.859054 0.14523,-0.03162 0.31282,0.310811 0.19476,0.40111 -0.67925,0.519543 -1.51573,0.792343 -2.27343,1.188813 -3.20018,1.674486 -6.42584,3.296087 -9.62721,4.968244 -0.88261,0.456132 -1.76522,0.912263 -2.64784,1.368395 0,0 -0.70224,-0.07718 -0.70224,-0.07718 l 0,0 c 0.8855,-0.455699 1.77101,-0.911398 2.65652,-1.367097 3.19844,-1.667997 6.42165,-3.283714 9.61069,-4.969771 0.74689,-0.394881 1.45627,-0.869585 2.23861,-1.188517 0.39818,-0.162324 1.59245,-0.522134 1.26732,-0.240731 -0.54131,0.468516 -1.31471,0.567133 -1.97207,0.8507 -9.50232,4.319512 -1.19842,0.522391 -14.13368,6.540943 -24.86651,11.569959 -49.71786,23.173788 -74.34512,35.248409 -24.81004,11.997017 -49.63554,23.962487 -74.40627,36.040597 -7.17027,3.4962 -14.34723,6.97892 -21.49635,10.51813 -14.443,7.1501 -21.34129,10.72888 -35.37969,17.90463 -10.42949,5.27967 -17.535533,8.82812 -27.753622,14.17843 -6.327984,3.3134 -12.566454,6.79681 -18.91249,10.07551 -1.972897,1.0193 -3.925755,2.08986 -5.972221,2.95199 -1.377433,0.58029 -2.847783,0.90904 -4.271674,1.36356 -0.400391,-0.0788 -1.237646,0.16997 -1.201174,-0.23648 0.0627,-0.69876 0.838596,-1.13858 1.366074,-1.60115 1.194011,-1.04709 2.475911,-1.99302 3.774635,-2.907 7.799243,-5.48878 16.160349,-10.13521 24.274974,-15.12253 10.284947,-5.95453 13.800506,-8.08667 24.476448,-13.85185 17.54849,-9.47648 35.42949,-18.34841 53.60107,-26.56603 5.8634,-2.68809 13.69434,-6.26637 19.68434,-9.05265 2.12656,-0.98918 4.2445,-1.99679 6.36809,-2.99235 1.6616,-0.77898 4.26869,-2.32425 6.37179,-2.40339 0.1984,-0.007 -0.23029,0.32349 -0.34543,0.48523 -3.86354,2.56452 -7.82788,4.9536 -11.80082,7.34533 -4.86429,2.92833 -9.73049,5.85354 -14.60767,8.76035 -2.88248,1.71796 -5.77408,3.4206 -8.66111,5.1309 -3.07412,1.75182 -6.12939,3.53713 -9.22234,5.25546 -14.17801,7.87676 -28.70439,15.1431 -43.55964,21.65472 -3.14174,1.27173 -8.29813,3.83102 -11.909401,3.46776 -1.393765,-0.14021 -1.104726,-1.2398 -0.575746,-2.06855 0.494009,-0.77396 1.212575,-1.37909 1.818863,-2.06864 1.126563,-0.92983 2.217775,-1.90424 3.379684,-2.78951 12.34765,-9.40775 26.3797,-16.31379 40.15467,-23.32126 14.41369,-6.76193 7.75313,-3.70765 22.16474,-10.19019 10.63677,-4.78455 21.25013,-9.6397 32.09772,-13.93439 1.42619,-0.51492 2.84029,-1.06463 4.27856,-1.54476 1.0066,-0.33603 3.57263,-1.29275 4.87783,-0.84371 0.22698,0.0781 0.10894,0.52034 -0.0248,0.71967 -0.64215,0.95719 -3.4745,3.09529 -4.00702,3.52653 -1.19899,0.88863 -2.38238,1.79873 -3.59699,2.6659 -9.53981,6.81095 -19.61198,12.83645 -29.77758,18.65514 -2.42294,1.31433 -4.82815,2.66189 -7.26883,3.94299 -5.62831,2.95429 -8.52891,4.33587 -14.26993,6.94304 -2.7821,1.26343 -8.95103,3.97848 -11.97139,5.16589 -1.48927,0.58549 -3.01015,1.08715 -4.51523,1.63072 -2.0474,0.51794 -4.10603,1.22208 -6.26162,1.12955 -0.3499,-0.015 -0.81951,-0.11423 -0.95548,-0.43697 -0.14655,-0.34784 0.1039,-0.77394 0.31287,-1.08826 1.06876,-1.60754 3.16221,-3.01828 4.55272,-4.13104 4.26893,-3.03665 5.45506,-3.96686 10.19338,-6.91421 11.70327,-7.27972 24.07457,-13.39709 36.60973,-19.09659 10.26081,-4.53465 20.51153,-9.08933 30.94339,-13.22219 5.40776,-2.14243 10.33219,-4.0268 15.88181,-5.68196 1.94354,-0.57966 3.92691,-1.01621 5.89037,-1.52431 1.64418,-0.21192 3.27627,-0.56481 4.93253,-0.63575 0.52548,-0.0225 3.28537,-0.129 3.25044,1.42836 -0.0145,0.6478 -0.45778,1.23564 -0.86114,1.74275 -1.4357,1.80497 -4.66105,4.17306 -6.26009,5.45332 -1.72228,1.25456 -3.42291,2.53942 -5.16685,3.76369 -4.5464,3.19164 -9.37483,6.33753 -14.03686,9.33753 -8.67034,5.57935 -17.45087,10.98685 -26.45416,16.01627 -8.62998,4.75004 -17.24222,9.52792 -26.18739,13.67063 -3.94365,1.82639 -8.92231,3.96574 -13.12358,5.33918 -1.53444,0.50163 -3.11719,0.84126 -4.67579,1.26189 -1.52277,0.15035 -4.42523,0.72613 -6.19087,0.14329 -1.77502,-0.58594 -1.55857,-2.521 -0.93554,-3.86833 0.34768,-0.75189 0.87605,-1.40622 1.31407,-2.10932 2.10469,-2.49143 2.84123,-3.48496 5.32924,-5.84842 6.09129,-5.78639 13.07922,-10.5051 20.23728,-14.856 2.09801,-1.18964 4.17161,-2.42337 6.29402,-3.56892 8.42712,-4.54847 17.20027,-8.54409 26.31939,-11.48931 2.92851,-0.71209 3.46706,-0.97846 6.47169,-1.17578 0.84496,-0.0555 2.88998,-0.14792 3.31021,1.00312 0.0878,0.24057 0.0155,0.51198 0.0232,0.76796 -0.13311,0.33866 -0.22286,0.69775 -0.39931,1.01597 -0.57041,1.02867 -1.42284,1.9502 -2.21879,2.79235 -2.13234,2.25613 -4.40868,4.38825 -6.88032,6.27006 -1.15271,0.8422 -2.28449,1.71381 -3.45812,2.52659 -7.30136,5.05645 -15.13958,9.307 -23.23529,12.94056 -1.8031,0.75038 -3.58924,1.54286 -5.40928,2.25116 -5.22617,2.03385 -10.58731,3.74271 -16.0082,5.17404 -1.5427,0.40733 -3.08806,0.80939 -4.64913,1.13941 -1.36971,0.28958 -2.75872,0.47886 -4.13808,0.71829 -1.19321,0.11362 -2.38271,0.2771 -3.57962,0.34085 -3.3138,0.1765 -6.90684,0.12922 -10.10647,-0.90101 -0.47192,-0.15195 -0.91815,-0.37439 -1.37723,-0.56159 -0.72843,-0.45856 -1.2803,-0.6675 -1.73306,-1.41596 -0.81371,-1.34514 0.11142,-2.74883 0.85669,-3.864 0.32548,-0.39695 0.62086,-0.82064 0.97646,-1.19087 0.78179,-0.81394 2.18462,-1.9296 3.06523,-2.55688 2.44279,-1.74004 5.07579,-3.17571 7.9009,-4.19788 1.16112,-0.43274 2.31155,-0.89528 3.48334,-1.29822 7.49747,-2.57816 15.23712,-4.40522 22.95624,-6.16945 9.33034,-1.91268 18.73939,-3.78735 28.28508,-4.10567 5.83688,-0.14691 11.74023,-0.18873 17.46528,1.13535 0.9381,0.25229 3.72353,0.6543 3.80574,2.05167 0.0334,0.56758 -0.45487,1.05842 -0.7395,1.45703 -2.78591,2.5087 -6.19569,4.16803 -9.476,5.92776 -2.06467,1.0076 -2.9442,1.47194 -5.10192,2.3745 -4.14578,1.73413 -8.44103,3.113 -12.82245,4.11077 -2.6034,0.51703 -4.6076,0.96647 -7.24461,1.28563 -4.63697,0.5612 -9.36295,0.508 -14.00429,0.0597 -4.73215,-0.62411 -9.56425,-1.41862 -13.74648,-3.86432 -1.89926,-1.14253 -3.92093,-2.4713 -4.66227,-4.67449 -0.11858,-1.39702 0.0224,-2.83489 0.62966,-4.11496 0.7988,-1.32802 1.59254,-1.95185 3.00076,-2.58771 0.81226,-0.38758 1.62318,-0.87127 2.46533,-1.18774 0.95313,-0.35819 1.97972,-0.54763 2.91492,-0.96568 2.10644,-0.64989 4.17039,-1.43209 6.30859,-1.97685 0.28752,-0.0857 0.57014,-0.1901 0.86257,-0.25725 0.63516,-0.14586 1.03589,-0.15315 1.68479,-0.16442 1.09628,-0.019 2.20096,-0.0566 3.28614,0.13309 1.65625,0.28676 3.25562,0.77481 4.89355,1.13506 0,0 -0.74471,0.10293 -0.74471,0.10293 z"
       inkscape:connector-curvature="0"
       transform="translate(0,831.99377)" />
  </g>
</svg>
