<?xml version="1.0" encoding="UTF-8" standalone="no"?>
<!-- Created with Inkscape (http://www.inkscape.org/) -->

<svg
   xmlns:dc="http://purl.org/dc/elements/1.1/"
   xmlns:cc="http://creativecommons.org/ns#"
   xmlns:rdf="http://www.w3.org/1999/02/22-rdf-syntax-ns#"
   xmlns:svg="http://www.w3.org/2000/svg"
   xmlns="http://www.w3.org/2000/svg"
   xmlns:sodipodi="http://sodipodi.sourceforge.net/DTD/sodipodi-0.dtd"
   xmlns:inkscape="http://www.inkscape.org/namespaces/inkscape"
   width="744.09448819"
   height="1052.3622047"
   id="svg2"
   version="1.1"
   inkscape:version="0.48.4 r9939"
   sodipodi:docname="drawing.png">
  <title
     id="title3077">signature</title>
  <defs
     id="defs4" />
  <sodipodi:namedview
     id="base"
     pagecolor="#ffffff"
     bordercolor="#666666"
     borderopacity="1.0"
     inkscape:pageopacity="0.0"
     inkscape:pageshadow="2"
     inkscape:zoom="1.01"
     inkscape:cx="375"
     inkscape:cy="924.82272"
     inkscape:document-units="px"
     inkscape:current-layer="layer1"
     showgrid="false"
     inkscape:window-width="1920"
     inkscape:window-height="1003"
     inkscape:window-x="-9"
     inkscape:window-y="-9"
     inkscape:window-maximized="1" />
  <metadata
     id="metadata7">
    <rdf:RDF>
      <cc:Work
         rdf:about="">
        <dc:format>image/svg+xml</dc:format>
        <dc:type
           rdf:resource="http://purl.org/dc/dcmitype/StillImage" />
        <dc:title>signature</dc:title>
      </cc:Work>
    </rdf:RDF>
  </metadata>
  <g
     inkscape:label="Layer 1"
     inkscape:groupmode="layer"
     id="layer1">
    <path
       style="fill:#000000;fill-opacity:1;fill-rule:nonzero;stroke:none;stroke-width:1.7;stroke-miterlimit:4;stroke-dasharray:none"
       id="path3017"
       d="m 30.70265,143.37549 c 0.03001,-4.23172 0.110574,-8.45475 -0.275161,-12.67184 -0.419735,-3.605 -0.553677,-7.23043 -0.643253,-10.85576 -0.07257,-3.43839 -0.07133,-6.87775 -0.07398,-10.31674 0.0028,-3.41732 0.0044,-6.83464 0.0077,-10.251957 0.0024,-3.614665 6.7e-4,-7.22933 4.34e-4,-10.843995 0.486766,-3.540138 0.792737,-4.912187 3.486321,-7.309666 2.805137,-2.109583 5.710507,-2.659993 9.132823,-2.704653 2.979794,0.01112 5.921481,0.600712 8.26298,2.568359 0.370093,0.311003 1.763276,1.93636 2.028578,2.239961 2.365686,2.905798 3.702418,6.422073 4.712792,9.986403 0.425525,2.344045 1.093,4.792565 0.849449,7.202268 -0.125447,1.24117 -0.457809,1.8616 -0.904981,3.00786 -0.959892,2.85736 -3.427931,4.19708 -5.871443,5.63156 -2.428124,1.00679 -4.78964,2.19929 -7.312414,2.96909 -2.992992,0.63254 -6.374683,0.77683 -9.334801,-0.0979 -0.23842,-0.18529 -0.476841,-0.37059 -0.715262,-0.55588 0,0 1.955777,-0.18374 1.955777,-0.18374 l 0,0 c 0.233866,0.16201 0.467732,0.32402 0.701597,0.48604 1.515097,0.39866 0.822181,0.29452 2.457651,0.38964 0.428662,0.0249 0.862712,-0.004 1.286543,0.0645 0.249221,0.0405 -1.006675,0.0601 -0.757158,0.0215 3.576285,-0.55346 -1.502249,0.50686 2.465883,-0.37385 2.529056,-0.74088 4.866985,-1.95483 7.306381,-2.9233 2.419596,-1.39319 4.902829,-2.69282 5.866615,-5.50087 0.435355,-1.09484 0.782787,-1.74655 0.906518,-2.93482 0.248917,-2.390516 -0.423984,-4.823402 -0.845091,-7.148299 -1.00583,-3.5403 -2.347553,-7.025905 -4.714238,-9.899674 -1.027139,-1.163172 -1.899692,-2.230823 -3.271449,-3.002783 -1.247895,-0.702256 -1.849711,-0.863063 -3.202718,-1.365569 -0.08239,-0.04558 0.03543,-0.184941 0.05315,-0.277411 -3.404067,0.01473 -6.290679,0.499074 -9.110041,2.567102 -2.703157,2.361971 -2.980168,3.608467 -3.484111,7.144148 -4.54e-4,3.614688 -0.0026,7.229376 -0.0025,10.844064 6.9e-4,3.417272 -0.0031,6.834552 -0.0034,10.251832 -7.49e-4,3.4374 -6.56e-4,6.87512 0.06814,10.31198 0.0896,3.62119 0.230901,7.2417 0.645022,10.84298 0.378539,4.22355 0.278852,8.45214 0.28867,12.68943 0,0 -1.961036,0 -1.961036,0 z"
       inkscape:connector-curvature="0" />
    <path
       style="fill:#000000;fill-opacity:1;fill-rule:nonzero;stroke:none;stroke-width:1.7;stroke-miterlimit:4;stroke-dasharray:none"
       id="path3019"
       d="m 40.501278,117.30501 c -2.245659,1.49624 -5.318821,3.4383 -6.678384,5.86656 -0.286772,0.51219 -0.427852,1.09328 -0.641778,1.63992 -0.505699,2.57208 -1.193788,5.78239 -0.0208,8.30717 0.211886,0.45607 0.570355,0.82842 0.855532,1.24264 1.877452,3.03515 4.908969,4.5273 8.245866,5.39484 2.839129,0.59679 4.329197,0.30082 7.066232,-1.17329 1.987197,-1.69235 3.06888,-4.03745 3.668679,-6.52669 0.312371,-1.8484 0.472522,-3.9163 -0.488418,-5.62418 -0.166062,-0.29514 -1.571517,-1.96677 -1.77119,-2.20772 -1.934778,-2.15737 -4.421357,-3.23322 -7.195824,-3.81692 -0.538816,-0.0786 -1.077632,-0.15727 -1.616449,-0.23591 0,0 1.931102,-0.2765 1.931102,-0.2765 l 0,0 c 0.539462,0.0828 1.078925,0.16559 1.618388,0.24838 2.790183,0.6218 5.283641,1.75584 7.21238,3.94612 0.322944,0.39212 1.527738,1.81567 1.774333,2.27142 0.950071,1.75587 0.808963,3.84968 0.492109,5.74113 -0.600406,2.54194 -1.701649,4.91766 -3.681429,6.68882 -3.346889,1.89762 -7.218383,1.96741 -10.944093,1.2202 -3.356937,-0.91808 -6.372665,-2.47505 -8.260861,-5.5342 -0.28594,-0.43531 -0.64448,-0.83081 -0.857821,-1.30594 -1.158845,-2.58082 -0.487087,-5.80634 0.02551,-8.43094 0.214068,-0.56527 0.352571,-1.16527 0.642203,-1.6958 1.341749,-2.45776 4.452488,-4.41138 6.678485,-5.96443 0,0 1.946229,0.22532 1.946229,0.22532 z"
       inkscape:connector-curvature="0" />
    <path
       style="fill:#000000;fill-opacity:1;fill-rule:nonzero;stroke:none;stroke-width:1.7;stroke-miterlimit:4;stroke-dasharray:none"
       id="path3021"
       d="m 53.455765,115.80432 c -0.01762,4.24042 -0.01032,8.48091 -0.0085,12.72136 -0.03908,3.44491 0.584783,6.60705 2.692907,9.3677 1.254732,1.23312 2.745063,1.54676 4.43931,1.65169 0.243129,0.0151 -0.838705,0.13488 -0.726258,-0.0812 0.174216,-0.33478 0.681357,-0.32478 1.022035,-0.48718 1.651577,-0.90623 2.014406,-2.06662 2.745014,-3.64558 0.266221,-0.57534 1.033708,-1.7988 1.365812,-2.34299 1.611354,-2.39693 1.668531,-5.2843 2.438006,-7.95925 1.087265,-3.41963 1.440371,-7.01275 1.703615,-10.57432 0.350782,-3.90594 0.10248,-7.79538 -0.234714,-11.68861 -0.314273,-3.701392 -0.453243,-7.413405 -0.523509,-11.126374 -0.194319,-1.148551 -0.264943,-1.801577 -0.599998,-2.904357 -0.09153,-0.301268 -0.18881,-0.605652 -0.343334,-0.879993 -0.06562,-0.116498 -0.418867,-0.328551 -0.301405,-0.264675 2.04484,1.111973 1.714391,0.444538 1.402741,2.368199 -0.390781,4.966677 -0.361463,9.950822 0.0039,14.91564 0.430378,4.44946 0.591134,8.91778 0.683583,13.38507 0.13719,4.14028 0.248477,8.35085 1.036446,12.42719 0.686836,3.61569 1.403927,7.25939 3.662548,10.24159 -0.952337,-0.15116 3.573898,2.20304 3.128562,1.30562 -0.158918,-0.32025 -0.909132,0.15757 -1.059474,-0.16679 -0.129509,-0.27941 0.517166,-0.35272 0.705876,-0.59609 0.233913,-0.30167 0.359709,-0.67342 0.539564,-1.01013 0.976399,-2.85464 1.97966,-5.64938 2.470687,-8.63664 0.57197,-2.79203 1.764003,-5.77366 4.961382,-6.00684 0.906814,0.15352 1.8672,0.11725 2.720441,0.46056 0.791208,0.31835 1.88234,4.48201 2.088812,5.33219 0.317936,2.44846 0.682529,4.91726 2.329647,6.84617 -0.816587,-0.0737 3.479405,1.80522 2.86263,1.01615 -0.235341,-0.30108 -0.952433,0.0404 -1.103567,-0.31056 -0.122181,-0.28375 0.52247,-0.3473 0.716925,-0.58736 0.242455,-0.29932 0.381421,-0.66934 0.572132,-1.00401 1.076646,-3.06409 1.10355,-6.36595 1.209957,-9.57815 0.0046,-0.10135 -0.07544,-0.35228 0.01381,-0.30405 3.199974,1.72944 1.75684,1.85554 1.95902,4.84451 0.04232,0.62565 0.455179,2.83416 0.552444,3.37959 0.23471,1.76467 0.625538,3.54038 1.543799,5.0913 0.18864,0.31861 0.40731,0.62918 0.68397,0.87527 0.23852,0.21216 1.04828,0.23836 0.83241,0.47352 -0.25839,0.28149 -0.7584,-0.094 -1.1376,-0.14105 0.23233,-0.15367 0.50433,-0.25982 0.697,-0.461 1.09264,-1.14089 2.08376,-5.00686 2.66786,-6.56586 0.71487,-2.66967 2.72756,-4.45442 4.5332,-6.39732 0.85252,-1.13334 1.36424,-2.71551 3.03778,-0.55698 0.27159,0.3503 -0.0783,0.88308 -0.1103,1.32517 -0.0418,0.57705 -0.074,1.15474 -0.11094,1.73212 -0.16488,3.96375 -0.87729,6.70498 1.25553,10.27379 1.0615,1.00025 0.95959,1.08964 2.39193,1.64159 2.00932,0.77429 2.0105,0.46395 4.23522,-1.00699 3.42815,-2.27464 4.76861,-6.22788 6.32808,-9.84126 1.62298,-4.06698 2.91981,-8.23454 3.6672,-12.5491 0.56723,-4.31949 0.61001,-8.68406 0.6468,-13.03361 -0.0926,-1.91181 0.13284,-3.84664 9.1e-4,-5.75672 -0.11651,-1.686804 -0.57537,-3.389909 -0.91276,-5.041618 -1.06773,-3.205584 -2.26376,-5.301487 -5.05791,-7.267553 -1.94689,-1.019126 -0.98832,-0.666999 -2.94489,-1.163529 -0.17243,-0.04376 0.64616,0.01188 0.51662,0.13381 -0.33124,0.311782 -0.86901,0.301123 -1.24722,0.553872 -1.12018,0.748583 -1.18064,1.277261 -1.79795,2.474039 -1.32604,3.850589 -1.42707,7.966695 -1.52511,11.998179 -0.13054,4.96489 0.45701,9.88624 1.28638,14.76807 1.23208,4.64931 2.10549,9.38279 3.21769,14.05845 0.14849,0.19908 0.67646,0.50603 0.44546,0.59723 -0.46688,0.18433 -1.09358,0.11879 -1.49468,-0.18299 -0.2008,-0.15108 0.29017,-0.4113 0.41467,-0.62958 0.58076,-1.01826 0.92417,-1.97948 1.62065,-2.93909 2.79841,-2.5182 6.5763,-2.55643 9.99461,-1.12491 2.18565,1.48692 1.77222,3.70786 2.06626,5.9907 0.31463,3.68262 3.23671,5.83965 5.85129,8.05955 2.37734,1.7247 4.3393,3.95595 7.06602,5.14219 0,0 -1.94684,0.22424 -1.94684,0.22424 l 0,0 c -2.69066,-1.25879 -4.68134,-3.45873 -7.05261,-5.19846 -2.65671,-2.25787 -5.55327,-4.46575 -5.87415,-8.20235 -0.28866,-2.22248 0.13,-4.39512 -2.05298,-5.78462 -0.40153,-0.15835 -0.89134,-0.17812 -1.20459,-0.47506 -0.11769,-0.11156 0.52751,-0.28308 0.36896,-0.31707 -1.93334,-0.41435 -3.86075,0.61596 -5.26148,1.81067 -0.23917,0.31553 -0.51955,0.6037 -0.71751,0.94658 -0.70592,1.22271 -1.73242,5.87354 -4.17942,2.12761 -1.06253,-4.69043 -1.97029,-9.41549 -3.19231,-14.07051 -0.83549,-4.89339 -1.41849,-9.82879 -1.30047,-14.8054 0.0996,-4.060195 0.21368,-8.199957 1.52325,-12.084461 0.26002,-0.526744 0.44576,-1.097205 0.78006,-1.580232 1.94999,-2.817556 6.07467,-2.089891 8.58047,-0.511665 2.78569,2.02979 4.01685,4.162468 5.06717,7.413093 0.33882,1.666414 0.7942,3.378592 0.90913,5.080425 0.12907,1.91118 -0.0912,3.84601 -0.002,5.75884 -0.0406,4.36006 -0.0908,8.73432 -0.64817,13.06523 -0.75088,4.33064 -2.04722,8.51115 -3.6745,12.59451 -1.56244,3.63627 -2.89815,7.63822 -6.32346,9.95219 -0.46708,0.32532 -0.89495,0.71582 -1.40124,0.97595 -3.00156,1.54222 -6.89064,0.70157 -9.11701,-1.69653 -2.09947,-3.63351 -1.42864,-6.37982 -1.25393,-10.38955 0.0198,-0.3308 0.17229,-3.02817 0.20635,-3.06247 4.43483,-4.46574 1.11018,0.88231 0.87843,0.71998 -1.77634,1.93846 -3.82901,3.66641 -4.53676,6.32166 -0.63951,1.6952 -1.5363,5.36559 -2.66082,6.68062 -0.19554,0.22867 -0.47197,0.37329 -0.70796,0.55994 -0.9199,0.0192 -1.84799,0.18147 -2.759688,0.0575 -1.954997,-0.2659 -2.834087,-5.19095 -3.054883,-6.60583 -0.320136,-1.78033 -0.551246,-3.37789 -0.549703,-5.18787 4.81e-4,-0.56478 -0.305913,-1.21893 -0.001,-1.69435 0.429642,-0.66993 1.264185,-0.97752 1.961068,-1.36191 0.08712,-0.0481 -0.02019,0.19795 -0.03028,0.29693 -0.135918,3.24218 -0.145009,6.5682 -1.21182,9.66939 -0.190885,0.35804 -0.329013,0.74968 -0.572655,1.07413 -1.490413,1.98477 -4.776391,1.11404 -6.387071,-0.15122 -1.608681,-1.99046 -2.016295,-4.45196 -2.332221,-6.935 -0.358327,-1.46024 -0.750546,-3.06001 -1.494548,-4.38416 -0.160119,-0.28497 -0.736753,-0.49185 -0.589483,-0.78367 0.184731,-0.36605 0.781705,-0.24781 1.172557,-0.37171 -3.191651,-0.003 -4.389405,3.01532 -4.951954,5.73819 -0.484728,3.00996 -1.499896,5.81884 -2.463277,8.69858 -0.185662,0.37102 -0.671884,1.63534 -1.256778,1.78186 -2.281144,0.57141 -4.298132,0.2988 -5.964063,-1.28272 -2.228886,-3.03132 -2.969598,-6.68719 -3.658767,-10.32977 -0.782008,-4.08894 -0.894175,-8.30799 -1.027927,-12.46001 -0.09848,-4.46402 -0.258242,-8.92835 -0.684984,-13.37506 -0.36177,-4.979834 -0.371014,-9.977603 -0.01982,-14.960484 0.301721,-1.949786 -0.13063,-1.745063 2.518361,-2.490198 0.480484,-0.135155 1.209191,3.830457 1.22682,4.19802 0.07058,3.708491 0.202498,7.416604 0.520722,11.113312 0.336215,3.90354 0.582697,7.80356 0.236306,11.71974 -0.264424,3.57385 -0.61954,7.1805 -1.695845,10.61541 -0.792626,2.68399 -0.822255,5.59727 -2.440058,8.01118 -0.255907,0.41675 -1.158827,1.85951 -1.363346,2.30371 -0.77516,1.6836 -1.01055,2.76213 -2.753027,3.79201 -0.344492,0.18887 -0.645142,0.50708 -1.033474,0.5666 -2.726234,0.41791 -5.536486,0.1656 -7.60168,-1.73854 -2.083154,-2.82187 -2.728069,-6.00736 -2.684463,-9.4936 0.0018,-4.24045 0.0091,-8.48094 -0.0085,-12.72136 0,0 1.961035,0 1.961035,0 z"
       inkscape:connector-curvature="0" />
    <path
       style="fill:#000000;fill-opacity:1;fill-rule:nonzero;stroke:none;stroke-width:1.7;stroke-miterlimit:4;stroke-dasharray:none"
       id="path3023"
       d="m 97.002593,114.15635 c 0.437079,-0.25505 0.874159,-0.51009 1.311238,-0.76514 0,0 1.942389,0.20222 1.942389,0.20222 l 0,0 c -0.434823,0.25987 -0.869652,0.51974 -1.30448,0.7796 0,0 -1.949147,-0.21668 -1.949147,-0.21668 z"
       inkscape:connector-curvature="0" />
    <path
       style="fill:#000000;fill-opacity:1;fill-rule:nonzero;stroke:none;stroke-width:1.7;stroke-miterlimit:4;stroke-dasharray:none"
       id="path3025"
       d="m 74.590536,100.39452 c 3.833979,-1.224845 7.800557,-1.576266 11.773077,-1.966724 0,0 1.930953,0.286107 1.930953,0.286107 l 0,0 c -3.965386,0.40445 -7.937812,0.686687 -11.764727,1.935047 0,0 -1.939303,-0.25443 -1.939303,-0.25443 z"
       inkscape:connector-curvature="0" />
    <path
       style="fill:#000000;fill-opacity:1;fill-rule:nonzero;stroke:none;stroke-width:1.7;stroke-miterlimit:4;stroke-dasharray:none"
       id="path3027"
       d="m 167.09992,141.41673 c -0.89175,-4.27102 -1.24865,-8.62125 -1.51006,-12.96815 -0.17735,-4.22059 -0.36755,-8.44353 0.04,-12.65375 0.43532,-3.70703 0.56268,-7.43816 0.65577,-11.16634 -0.15284,-3.51166 -0.53778,-7.006502 -0.73814,-10.51572 0.0401,-3.231248 0.30845,-6.409841 1.18492,-9.520325 0.78062,-1.796962 1.33665,-4.442514 3.5051,-5.075546 0.43515,-0.127033 0.89701,-0.131702 1.34551,-0.197553 4.05742,-0.109748 7.35899,1.587387 10.59653,3.843015 2.89888,2.070181 4.63475,5.151021 6.57163,8.047892 1.81217,3.289311 2.02772,7.083799 2.23864,10.754167 0.25767,3.57064 0.10996,7.10288 -0.75986,10.57548 -1.06639,2.55393 -3.66824,2.95378 -6.13178,3.24301 -0.0885,0.20978 -2.13183,-0.0136 -2.21768,0.15438 -0.0392,0.0767 0.17716,-0.0194 0.2584,0.009 0.40858,0.14475 1.2596,0.6914 1.5384,0.85881 2.42612,1.23743 4.7326,2.8347 6.77701,4.63617 2.31623,2.15167 2.8287,4.95145 3.22412,7.96351 0.51916,3.6858 -0.60999,7.10795 -3.17094,9.76342 -1.89945,2.23248 -4.23174,3.52778 -7.11348,3.9521 -2.01815,-0.0225 -4.09428,0.19518 -6.09712,-0.11545 -1.4213,-0.22044 -2.86534,-0.77852 -4.25152,-1.15656 -0.51099,-0.1567 -1.02198,-0.3134 -1.53297,-0.4701 0,0 1.93554,-0.24813 1.93554,-0.24813 l 0,0 c 0.51124,0.15475 1.02247,0.30951 1.5337,0.46426 2.61186,0.7145 5.23574,1.45427 6.4741,1.2454 2.87628,-0.34735 5.21419,-1.60461 7.10545,-3.82292 2.57357,-2.57288 3.68668,-5.95765 3.17157,-9.58631 -0.39966,-2.97132 -0.91824,-5.71993 -3.22847,-7.82218 -2.06461,-1.77508 -4.34466,-3.37377 -6.77695,-4.60057 -0.29503,-0.17282 -1.84579,-0.77218 -1.79957,-1.36802 0.0106,-0.13735 2.24682,0.044 2.23595,-0.14154 2.38955,-0.25304 5.01477,-0.55123 6.10995,-3.00705 0.87945,-3.45105 1.03715,-6.96336 0.77219,-10.51579 -0.21294,-3.637535 -0.42158,-7.401006 -2.24354,-10.650495 -1.92512,-2.882272 -3.65891,-5.939544 -6.56274,-7.974636 -1.41975,-0.968942 -2.90332,-1.871717 -4.46833,-2.594609 -0.45851,-0.21179 -0.93412,-0.386946 -1.41401,-0.544376 -0.46835,-0.15364 -1.02851,-0.09751 -1.427,-0.387616 -0.16955,-0.123431 0.39221,-0.148632 0.58832,-0.222949 -3.58304,0.378968 -3.5557,2.046993 -4.83402,5.045225 -0.88206,3.110816 -1.14431,6.222895 -1.18608,9.455413 0.20051,3.514387 0.58135,7.014883 0.73258,10.531793 -0.0966,3.73254 -0.21568,7.46883 -0.65018,11.18054 -0.42039,4.19938 -0.23352,8.41227 -0.0519,12.62304 0.25721,4.33739 0.61223,8.68076 1.53104,12.93684 0,0 -1.9601,0.0429 -1.9601,0.0429 z"
       inkscape:connector-curvature="0" />
    <path
       style="fill:#000000;fill-opacity:1;fill-rule:nonzero;stroke:none;stroke-width:1.7;stroke-miterlimit:4;stroke-dasharray:none"
       id="path3029"
       d="m 190.70275,132.54812 c 1.45136,-2.23248 2.07673,-4.85303 3.24088,-7.21845 0.47313,-0.96137 1.45071,-2.48361 2.02795,-3.41016 1.56976,-2.34907 4.91825,-5.14045 7.68857,-2.57186 1.32587,2.42917 1.23409,5.31876 1.30018,8.01219 0.36344,2.67722 -0.54063,5.82697 0.2425,8.42587 0.12311,0.40854 0.3715,0.76827 0.55725,1.15241 0.59928,0.67076 0.69438,1.00709 1.55826,1.22787 0.30226,0.0772 1.08895,0.34533 0.93289,0.0752 -0.17975,-0.31112 -0.92875,0.0725 -1.04415,-0.26778 -0.10061,-0.29664 0.54107,-0.32443 0.77126,-0.53686 0.27653,-0.2552 0.49135,-0.57005 0.73703,-0.85507 1.15842,-1.78186 1.32206,-3.87402 1.78098,-5.88026 0.12341,-0.53953 0.69372,-2.27053 0.86546,-2.80343 0.13514,-0.47851 0.29471,-0.95079 0.40541,-1.43554 0.16528,-0.72379 0.24774,-1.49003 0.31083,-2.23063 0.012,-0.14102 -0.1197,-0.42747 0.0218,-0.42403 2.20267,0.0536 1.9619,-0.0125 1.8913,1.2151 -0.0487,3.2716 -0.44016,6.58209 0.3833,9.77811 0.46034,1.00897 0.9413,2.01181 2.06779,2.3927 0.25707,0.0869 1.06386,0.19644 0.8066,0.1101 -1.40245,-0.47069 -1.71609,0.12879 -0.4322,-0.91125 1.85877,-2.02692 2.37879,-4.81143 3.05504,-7.3936 0.40393,-1.52363 0.1879,-4.32737 2.77141,-1.6367 0.0567,0.059 0.11561,2.38042 0.12896,2.81091 0.11745,2.09175 -0.59763,5.68855 1.88591,6.63055 -0.41244,-0.0168 -0.89321,0.17761 -1.23731,-0.0504 -0.20039,-0.13277 0.45569,-0.1861 0.62901,-0.35265 0.21971,-0.21114 0.3446,-0.50266 0.52017,-0.75171 0.68192,-0.96726 1.27677,-1.87202 1.80091,-2.93613 0.71949,-1.36402 0.86633,-3.13042 1.84295,-4.36086 0.62866,-0.79204 1.22081,-1.03622 2.06908,-1.53918 3.7935,-1.09735 5.29525,0.17746 6.88299,3.24281 1.06309,2.55454 1.19667,5.32256 1.42162,8.04219 0.14091,0.76273 0.42693,2.00102 -1.91652,-0.80811 -0.20468,-0.24535 0.0638,-5.2377 0.11351,-5.87283 0.15019,-2.60993 1.20049,-5.12349 3.65333,-6.27705 0.86406,0.0304 1.74605,-0.0865 2.5922,0.0912 0.31288,0.0657 0.51726,0.38056 0.74108,0.60884 1.37447,1.40189 1.71068,3.40976 2.11607,5.24871 0.0841,0.563 0.13696,1.13153 0.25216,1.68899 0.12588,0.60912 0.54742,2.20726 0.967,2.76058 0.41625,0.54892 2.12681,1.45699 1.90334,0.80534 -0.11562,-0.33713 -0.69167,-0.17232 -1.03751,-0.25847 1.79454,-1.70769 3.02713,-4.06129 4.1919,-6.24293 0.21797,-0.52226 0.4614,-1.03462 0.65389,-1.56679 0.46994,-1.29921 0.60765,-1.90423 0.80174,-3.24052 0.13948,-0.96032 0.14484,-1.75804 0.52528,-2.65229 2.21125,-1.73904 5.50846,-0.77869 7.93753,0.0869 2.66497,1.3177 4.33129,3.62844 5.978,6.01208 1.3587,2.26707 1.34201,3.95553 0.31839,6.32667 -2.8985,3.0534 -5.33204,0.77402 -6.68723,-2.10618 -1.34815,-3.5033 0.2376,-5.58865 2.36185,-8.22609 2.05366,-1.63774 3.3733,-4.86631 6.19596,-5.23641 0.87474,0.13318 1.7993,0.0795 2.62421,0.39953 1.07109,0.41556 1.28353,5.64051 1.33694,6.60314 0.29481,2.30704 -0.38325,5.10406 0.75808,7.26078 0.18028,0.34066 0.46885,0.61185 0.70327,0.91778 -0.19714,-0.13786 1.88272,1.51793 2.04639,0.8036 0.38998,-1.70204 -3.16469,1.3279 -0.005,-0.66185 0.91581,-0.57678 1.08423,-1.03795 1.68551,-1.92649 1.30017,-2.85079 2.42315,-5.77243 2.92666,-8.87387 0.13192,-0.85956 0.12605,-1.62315 2.00975,0.46544 0.013,0.0144 -0.0775,2.35768 -0.0699,2.77562 0.0248,1.35979 0.10221,1.4797 0.34319,2.82681 0.18207,0.41934 0.29142,0.87845 0.5462,1.25804 0.84032,1.25193 3.303,2.91446 4.91149,2.51812 0.27303,-0.0673 -0.53043,-0.1869 -0.79564,-0.28035 2.43938,-1.5386 2.26079,-4.49111 2.99485,-6.95992 1.00262,-2.24699 3.51123,-2.50846 5.68487,-2.83729 0.82349,0.065 1.67631,-0.0325 2.47046,0.19489 0.44931,0.12863 0.74811,3.68768 0.89652,4.17916 0.14368,0.47578 0.38135,0.91793 0.57203,1.37689 0.62108,1.05496 1.29176,2.06609 2.4673,2.55429 0.27987,0.11623 1.18662,0.19138 0.88423,0.21132 -0.39966,0.0264 -0.97606,0.14954 -1.18623,-0.19141 -0.16077,-0.26081 0.56287,-0.24218 0.8443,-0.36327 2.01171,-1.40154 2.40242,-3.75769 2.81369,-6.01028 0.40469,1.07271 -0.0458,-0.85881 0.18423,-0.74611 0.69427,0.34012 1.52345,0.55689 2.00948,1.15812 0.11487,0.1421 0.0121,5.31512 0.0115,5.51376 0.10696,7.13804 0.97179,14.24556 1.388,21.37479 0.38565,7.36518 0.48234,14.74152 0.54501,22.11529 0.05,4.43309 0.27148,8.83699 -0.70506,13.18295 -1.17352,3.1816 -4.00225,4.29449 -5.92977,0.7767 -1.23164,-3.10308 -1.50963,-6.43025 -2.1869,-9.66524 -0.98161,-4.2729 -1.50081,-8.6247 -1.81528,-12.99138 -0.329,-2.69558 -0.0569,-5.34288 0.3528,-8.00835 0.10215,-0.66448 0.13344,-1.34581 0.32291,-1.99085 0.17674,-0.6017 0.51102,-1.14541 0.76654,-1.71811 2.02605,-3.96647 3.92611,-7.98818 5.81731,-12.01831 1.68761,-3.16612 3.86965,-6.01681 6.1699,-8.75585 2.05538,-2.34895 3.40511,-4.44105 4.46287,-7.37976 0.26776,-1.02669 0.26639,-2.02727 2.06656,0.29578 0.006,0.008 -0.24122,4.09861 -0.25255,4.37037 0.37889,3.29915 0.5681,5.05379 3.7686,6.48651 0.88797,0.23255 2.12141,0.64773 3.06225,0.50141 0.12848,-0.02 -0.28524,-0.27437 -0.1776,-0.34731 0.55265,-0.3745 1.23306,-0.51236 1.84385,-0.78182 2.50424,-1.1048 1.60559,-0.65117 3.89901,-2.14628 2.27251,-1.62632 4.62246,-3.40963 6.4124,-5.58904 0.85131,-1.03656 1.5927,-2.16021 2.44379,-3.19696 2.71107,-4.17534 4.05833,-9.04473 5.40003,-13.79111 1.09421,-3.81712 1.62405,-7.74113 1.86065,-11.69393 0.15455,-3.686993 0.12384,-7.378835 0.11365,-11.068185 -0.0733,-2.588171 0.2887,-5.613585 -1.1565,-7.941029 -0.23467,-0.377938 -0.57395,-0.679866 -0.86092,-1.019799 -2.39057,-1.755463 -4.98462,-3.122542 -7.99367,-3.193484 0.33155,0.138917 0.93595,0.0621 0.99466,0.41675 0.0564,0.34071 -0.59722,0.368862 -0.8211,0.63181 -0.27946,0.328225 -0.47843,0.720854 -0.66249,1.110662 -0.66738,1.413346 -0.87637,2.964531 -1.11719,4.489028 -0.46801,4.730551 -0.36905,9.500366 -0.37172,14.24879 0.0125,6.262647 0.0219,12.525297 0.0288,18.787957 0.005,5.614 0.0128,11.228 0.0168,16.842 -0.041,0.8256 0.80714,5.91398 -1.95033,2.28553 -0.0442,-0.0582 0.44978,-2.23529 0.56874,-2.77421 1.15421,-3.834 2.9423,-5.62203 6.64679,-6.94195 3.08088,-0.64555 6.83412,-0.69038 8.85285,2.06994 0.1866,1.22349 -0.74917,1.91579 -1.29787,2.86019 -0.41249,0.70997 -0.44233,1.12303 -0.63503,1.93122 -0.23183,3.24647 2.5522,5.63524 4.93232,7.39509 0.88497,0.75694 1.9479,1.20031 2.94791,1.76567 0,0 -1.95754,0.20739 -1.95754,0.20739 l 0,0 c -0.99751,-0.56594 -2.04241,-1.04489 -2.92823,-1.79262 -2.42677,-1.83686 -5.20408,-4.29201 -4.95398,-7.62054 0.18335,-0.79966 0.23107,-1.30038 0.63451,-2.0123 0.49153,-0.86738 1.43242,-1.48712 1.29734,-2.60721 -0.60177,-0.77204 -0.50941,-0.78536 -1.48688,-1.34595 -0.3745,-0.21478 -0.95345,-0.1749 -1.17459,-0.54567 -0.12456,-0.20885 0.86477,-0.27609 0.63574,-0.35779 -0.44965,-0.16038 -2.50766,0.22578 -2.93109,0.29324 -3.68613,1.24221 -5.47913,2.94048 -6.62989,6.74352 -0.10825,0.49496 -0.22323,0.9885 -0.32474,1.48489 -0.0847,0.41436 0.0626,0.94558 -0.23398,1.24707 -2.96035,3.00903 -1.80514,-0.89375 -1.9504,-2.28549 0.003,-5.61393 0.007,-11.22787 0.001,-16.8418 -0.008,-6.26275 -0.0252,-12.52548 -0.0366,-18.788219 -5.7e-4,-4.758246 -0.10927,-9.538076 0.3486,-14.279199 0.23664,-1.51004 0.8089,-5.855142 2.6029,-6.420638 0.93216,-0.293832 1.92657,-0.330667 2.88986,-0.496001 3.01257,0.163718 5.6513,1.525023 8.00929,3.357725 0.28753,0.357946 0.62719,0.679651 0.8626,1.073839 1.41865,2.375504 1.08881,5.394839 1.15103,8.02116 0.006,3.693316 0.0427,7.389346 -0.11221,11.080253 -0.23718,3.96758 -0.77595,7.90471 -1.87477,11.73564 -1.35016,4.76944 -2.70495,9.65655 -5.39492,13.87176 -1.70263,2.05453 -0.88554,0.9861 -2.44673,3.20876 -1.78249,2.19855 -4.14664,3.99315 -6.41888,5.63457 -3.89351,2.59579 -7.74631,4.36129 -12.50123,2.8041 -3.18134,-1.54163 -3.41151,-3.38137 -3.77629,-6.71596 0.0154,-0.37796 0.0956,-4.23242 0.24194,-4.38163 0.53495,-0.54541 1.36973,-0.6785 2.07031,-0.98319 0.0325,-0.0141 -0.0253,0.0662 -0.038,0.0993 -0.0601,0.22507 -0.12026,0.45013 -0.18039,0.6752 -1.00559,2.7782 -1.72474,3.91205 -3.56074,6.19551 -0.32385,0.40278 -0.60874,0.83539 -0.91311,1.25308 -2.30553,2.71726 -4.47026,5.5644 -6.17486,8.70433 -1.88638,4.03059 -3.80054,8.04431 -5.81322,12.01602 -0.25596,0.55555 -0.59261,1.08062 -0.76786,1.66665 -0.19234,0.64319 -0.22242,1.32415 -0.3249,1.98761 -0.40967,2.65221 -0.6738,5.284 -0.35006,7.96631 0.31069,4.35843 0.82407,8.70253 1.81479,12.96511 0.67532,3.21602 0.95157,6.52747 2.20003,9.60456 0.1871,0.31992 0.326,0.67342 0.56129,0.95976 0.18742,0.22809 0.84341,0.30891 0.68679,0.55915 -0.20926,0.33438 -0.84391,0.43418 -1.16539,0.20559 -0.24917,-0.17717 0.55745,-0.27116 0.78319,-0.47735 0.58168,-0.5313 0.83151,-1.27946 1.15412,-1.96648 0.99515,-4.36087 0.77826,-8.68632 0.73164,-13.13802 -0.0478,-7.3706 -0.13587,-14.74371 -0.52573,-22.10556 -0.42026,-7.13364 -1.28967,-14.24415 -1.4186,-21.38612 -1.8e-4,-0.1244 -0.0796,-5.44958 -0.0345,-5.50607 0.45503,-0.56978 1.28158,-0.696 1.92494,-1.03919 0.0266,-0.0142 -0.0493,0.0345 -0.074,0.0518 -0.0409,0.20125 -0.0818,0.4025 -0.12272,0.60375 -0.43333,2.30671 -0.82378,4.69787 -2.82457,6.19914 -3.04317,1.4338 -5.42591,0.39933 -6.91181,-2.35969 -0.60803,-1.50001 -0.62406,-1.27876 -0.85611,-2.87183 -0.10251,-0.70371 -0.0348,-1.37212 -0.29481,-2.04565 -0.0684,-0.17715 -0.4863,-0.37671 -0.32119,-0.4705 0.41727,-0.23701 0.95383,-0.10649 1.43075,-0.15974 -2.10839,0.29929 -4.64229,0.47054 -5.67444,2.6155 -0.77718,2.52752 -0.58415,5.49307 -3.00942,7.16046 -1.02732,0.10111 -2.04996,0.27921 -3.08197,0.30331 -2.45165,0.0573 -4.69836,-1.8249 -5.47564,-4.02272 -0.12263,-0.69311 -0.65726,-5.25447 -0.28515,-5.64084 0.49519,-0.51416 1.2894,-0.64535 1.98603,-0.80119 0.12302,-0.0275 -0.0451,0.24805 -0.0677,0.37207 -0.5303,3.12344 -1.64752,6.07068 -2.93741,8.95589 -0.25602,0.39462 -0.46797,0.82162 -0.76807,1.18385 -1.61676,1.95147 -4.96977,2.25067 -6.86526,0.61157 -0.23501,-0.32647 -0.52382,-0.62028 -0.70504,-0.97941 -1.10961,-2.199 -0.46985,-4.97302 -0.75212,-7.3133 -0.0857,-1.53113 -0.12313,-3.10011 -0.48619,-4.59914 -0.0897,-0.37044 -0.19262,-0.74225 -0.35596,-1.08663 -0.12465,-0.26281 -0.67324,-0.48301 -0.49896,-0.7159 0.2622,-0.35036 0.84898,-0.2127 1.27348,-0.31905 -0.28608,0.005 -0.58821,-0.0787 -0.85824,0.0159 -2.36262,0.82788 -3.38396,3.69314 -5.33283,5.06011 -2.08258,2.57893 -3.71268,4.55849 -2.35572,8.00646 0.45856,0.94216 0.57837,1.40228 1.31662,2.14074 0.24661,0.24668 0.92425,0.29435 0.83447,0.6314 -0.0993,0.37264 -0.77589,0.15097 -1.09897,0.36153 -0.55914,0.36441 2.88771,-0.85895 1.72214,-1.02129 1.0289,-2.30712 1.02567,-3.91938 -0.31008,-6.12699 -1.64383,-2.35133 -3.2921,-4.63947 -5.96786,-5.88979 -0.42947,-0.14665 -0.85231,-0.31437 -1.28841,-0.43995 -0.41337,-0.11905 -0.95791,0.0164 -1.2568,-0.29302 -0.19203,-0.19876 1.08296,-0.11267 0.81205,-0.16732 -0.75179,-0.15166 -1.69069,0.25074 -2.29672,0.65488 -0.40603,0.86991 -0.40099,1.65576 -0.54077,2.60437 -0.20008,1.35784 -0.33301,1.96081 -0.80512,3.2826 -0.19224,0.53822 -0.43532,1.0569 -0.65298,1.58536 -1.18026,2.23716 -2.4548,4.56304 -4.19372,6.39843 -0.46429,0.0462 -2.88358,0.5773 -3.84665,0.0741 -1.80329,-0.94226 -1.79996,-3.57571 -2.13579,-5.27863 -0.32605,-1.46225 -0.59888,-3.00784 -1.4231,-4.29566 -0.19282,-0.30129 -0.43573,-0.57183 -0.69784,-0.81524 -0.21935,-0.2037 -0.93284,-0.29074 -0.73525,-0.51559 0.28964,-0.32959 0.87274,-0.0916 1.3091,-0.13743 -2.48059,0.99651 -3.50037,3.52507 -3.65071,6.06524 -0.0529,0.65079 -0.005,5.73901 -0.10642,5.85981 -1.90031,2.26808 -1.90418,1.66743 -2.01054,0.82065 -0.19172,-2.69606 -0.34894,-5.43791 -1.4104,-7.96279 -0.59635,-1.12249 -1.10052,-2.01454 -2.15352,-2.76261 -0.23844,-0.1694 -0.86413,-0.19491 -0.74576,-0.46237 0.13632,-0.30801 1.22915,-0.36967 1.00338,-0.11971 -0.2474,0.27392 -0.72454,0.14139 -1.08681,0.21209 -0.78837,0.44121 -1.46412,0.72081 -2.05832,1.4344 -1.00103,1.20217 -1.12492,2.99808 -1.8437,4.34964 -0.34594,0.71864 -2.15774,4.15131 -2.96252,4.25662 -0.87919,0.11504 -1.77327,-0.0192 -2.65991,-0.0288 -2.40869,-1.24026 -1.78854,-4.59164 -1.88595,-6.84997 -0.0162,-0.49152 -0.0243,-0.98337 -0.0487,-1.47455 -0.0217,-0.43796 -0.36007,-0.96716 -0.0897,-1.31242 3.04783,-3.89286 1.1676,1.31835 1.14631,1.65646 -0.68181,2.61782 -1.21835,5.42745 -3.05595,7.51332 -1.3657,1.2155 -0.72291,0.92358 -3.46787,1.01478 -1.54696,0.0514 -2.36325,-1.55747 -2.87894,-2.7276 -0.80177,-3.22003 -0.43216,-6.54473 -0.39915,-9.83708 0.0632,-1.25809 -0.18231,-1.17994 2.04788,-1.19231 3e-4,0 -0.0481,0.79241 -0.13278,1.38934 -0.20687,1.45833 -0.20861,1.26713 -0.62454,2.74966 -0.13499,0.41736 -0.76977,2.34961 -0.86785,2.77502 -0.46941,2.036 -0.62911,4.16042 -1.77695,5.98435 -0.25476,0.31162 -1.01204,1.37674 -1.51553,1.50253 -2.23732,0.55896 -3.97486,0.64984 -5.3494,-1.19644 -0.18516,-0.40285 -0.43216,-0.78269 -0.55548,-1.20856 -0.75981,-2.62386 0.11435,-5.75455 -0.23919,-8.45088 -0.0701,-2.63183 0.0468,-5.50017 -1.30788,-7.84902 -0.0442,-0.0355 -2.13164,-1.44066 0.45405,-0.74581 0.33862,0.091 -0.70269,0.1027 -1.02277,0.24586 -1.37254,0.61384 -2.38252,1.81622 -3.21914,3.01236 -0.53895,0.85851 -1.59245,2.49308 -2.03149,3.37898 -1.17387,2.36864 -1.78809,5.00096 -3.22354,7.25036 0,0 -1.95705,-0.10944 -1.95705,-0.10944 z"
       inkscape:connector-curvature="0" />
    <path
       style="stroke-width:1.70000005;stroke-miterlimit:4;stroke-dasharray:none"
       id="path3849"
       d="m 254.36316,268.89989 c -3.21142,1.71367 -6.42693,3.40542 -9.65433,5.08509 -2.99965,1.52786 -5.04497,2.56316 -6.6733,5.62704 -1.72939,2.61973 -2.58464,5.52613 -3.06013,8.59199 -0.20835,2.54547 0.12917,4.90051 1.57814,7.02479 2.61503,2.09186 6.11376,2.23481 9.32157,2.44523 4.56222,-0.0887 8.74654,-1.53171 12.85564,-3.40576 4.75157,-2.50094 9.05256,-5.74419 12.88452,-9.49104 2.73604,-3.00411 4.46541,-6.76829 5.6632,-10.61592 0.25846,-1.81418 1.35905,-4.95896 0.38546,-6.71308 -0.54007,-0.97303 -1.62152,-1.32349 -2.52892,-1.78165 -4.48653,-1.63003 -8.94078,-0.52319 -13.40934,0.62428 -10.93779,3.84631 -20.94388,9.9679 -30.72251,16.10967 -5.37327,3.57005 -10.54693,7.48428 -14.92163,12.25594 -1.56601,1.70812 -2.86332,3.53359 -4.24629,5.38313 -1.4638,2.15015 -4.0402,6.01314 -1.24423,8.33352 1.59483,1.32356 3.9089,1.54437 5.78907,1.97999 1.55999,0.11021 3.1163,0.30546 4.67998,0.33063 9.05955,0.14581 20.01831,-2.38467 28.53302,-5.16127 3.36144,-1.09614 6.63942,-2.4334 9.95913,-3.65011 3.47492,-1.5593 7.00176,-3.0077 10.42475,-4.67791 12.41723,-6.05887 25.49816,-13.64383 36.16472,-22.48503 2.01707,-1.67189 3.85189,-3.55221 5.77784,-5.32831 2.7217,-3.29221 10.42418,-10.71558 9.31152,-15.76926 -0.53761,-2.44181 -2.56767,-2.73806 -4.50197,-3.67603 -1.62231,-0.35296 -3.21683,-0.87544 -4.86692,-1.05887 -4.55718,-0.5066 -8.28164,-0.19617 -12.79395,0.36581 -7.29878,0.90903 -13.02594,1.879 -20.2531,3.59764 -3.86012,0.91795 -7.66613,2.05018 -11.49919,3.07527 -19.65277,6.43494 -38.8434,15.16994 -55.59602,27.43867 -2.73608,2.00376 -5.26976,4.27018 -7.90465,6.40526 -4.69485,4.73514 -10.2213,9.34748 -13.20933,15.49463 -0.83863,1.72527 -1.6961,4.28534 -0.46484,6.16439 0.56392,0.86059 1.60805,1.28398 2.41207,1.92598 1.44319,0.24982 2.86553,0.70714 4.32957,0.74946 3.10252,0.0897 10.65984,-1.80952 12.58629,-2.37941 11.52688,-3.41 22.04416,-9.12192 32.67561,-14.59192 4.44669,-2.56811 8.9527,-5.03616 13.34008,-7.70434 4.57837,-2.78432 9.05564,-5.73201 13.55056,-8.64914 12.43105,-8.06757 24.65471,-16.40518 36.39121,-25.46209 2.99452,-2.31084 5.90549,-4.72799 8.85823,-7.09199 4.18827,-3.59938 7.8585,-6.49367 11.55758,-10.49811 0.57845,-0.62621 3.77922,-3.92215 3.33832,-5.74497 -0.42743,-1.76719 -4.50681,-1.23252 -4.93925,-1.24636 -18.92516,5.05501 -35.92145,15.10822 -52.74207,24.84275 -8.4527,5.15419 -16.77171,10.55283 -24.8927,16.21789 -4.07106,2.8399 -7.17129,5.08563 -10.40532,8.76567 -0.13458,0.48323 -0.61473,0.9946 -0.40374,1.44969 0.55446,1.19598 2.22242,0.65076 2.98976,0.45733 1.97242,-0.4972 3.97245,-0.91528 5.89212,-1.58794 7.85467,-2.75232 12.37246,-5.35894 20.11149,-9.20481 25.54054,-14.69539 49.1901,-32.54075 71.39809,-51.85774 0.21495,-0.51564 9.78147,-8.02846 6.415,-10.11146 -0.50103,-0.31001 -1.19596,-0.002 -1.75937,0.16991 -6.55203,2.00439 -8.38486,3.3853 -15.07145,6.78803 -14.67211,8.22905 -28.2183,18.24509 -41.45306,28.57774 -11.00879,8.59479 -19.02665,15.19014 -29.43065,24.46538 -4.37102,3.8968 -8.60228,7.94759 -12.90343,11.92138 -7.29565,7.21014 -13.02346,12.60534 -19.74367,20.1686 -2.11756,2.38321 -4.23959,4.77982 -6.07899,7.38373 -1.10445,1.56349 -2.16729,3.22678 -2.71247,5.06175 -0.20355,0.68511 -0.06,1.77748 0.59672,2.05942 0.70768,0.3038 1.42209,-0.59168 2.13313,-0.88752 2.53048,-1.3746 5.15212,-2.59325 7.59143,-4.1238 6.74873,-4.23449 17.64912,-12.44368 23.66545,-16.96596 13.05729,-9.81474 25.94853,-19.84105 39.03669,-29.61547 5.38453,-4.01454 11.35052,-8.58339 16.97879,-12.38978 1.5959,-1.07931 3.23373,-2.09762 4.89499,-3.07334 0.68995,-0.40523 1.35137,-1.0885 2.15118,-1.06516 0.64566,0.0188 1.77063,0.56863 1.54249,1.17293 -0.50191,1.32944 -2.06196,1.95592 -3.09294,2.93387 -14.20167,12.27739 -29.54039,23.14252 -44.22265,34.82083 -3.94576,3.13848 -7.81905,6.367 -11.72857,9.5505 -18.7628,15.23851 -36.16538,32.03902 -52.08359,50.21431 -3.64263,-1.25801 -1.59306,4.2308 -3.4798,4.92098 -0.41476,0.15172 -1.32505,-0.27197 -1.14102,-0.67345 0.47974,-1.04653 1.72097,-1.53217 2.5283,-2.35289 1.25668,-1.27752 9.20447,-9.92965 9.62342,-10.38428 13.83795,-14.78561 27.9687,-29.30871 41.64148,-44.24818 14.43931,-15.777 21.26926,-23.90293 35.6355,-40.47748 37.18524,-43.24919 71.97513,-88.46447 105.71891,-134.42482 8.72931,-11.98743 17.36026,-24.046764 26.06805,-36.049398 3.57526,-4.928058 7.25783,-9.770031 10.77176,-14.742242 0.4006,-0.70965 0.8012,-1.419299 1.2018,-2.128949 0,0 1.93339,0.100088 1.93339,0.100088 l 0,0 c -0.41019,0.715608 -0.82038,1.431217 -1.23057,2.146826 -3.56096,4.967917 -7.29011,9.805313 -10.90353,14.734963 -8.78734,11.988233 -17.47987,24.047342 -26.26298,36.038962 -33.86311,45.90394 -68.72096,91.09267 -105.84094,134.42857 -14.02545,16.24875 -21.35993,24.98254 -35.48136,40.49486 -13.60203,14.94178 -27.66251,29.46916 -41.42463,44.2627 -1.85182,2.02618 -3.70049,4.05523 -5.55545,6.07853 -1.32455,1.44476 -2.62345,2.91381 -3.98305,4.32562 -0.89352,0.92783 -3.17135,3.94119 -5.24623,2.76132 -1.76942,-1.00618 9.69311,-5.30745 3.58264,-4.94508 16.03199,-18.12155 33.42567,-34.97901 52.22629,-50.2323 3.90617,-3.18513 7.77668,-6.41451 11.71853,-9.55539 14.63356,-11.66011 29.92288,-22.51376 44.03614,-34.81943 1.01069,-0.95054 1.89285,-2.05967 3.03207,-2.85163 0.68486,-0.4761 1.80044,-1.51879 2.34106,-0.88363 0.52743,0.61967 -1.50303,0.6343 -2.20939,1.03832 -1.6836,0.96299 -3.33807,1.97969 -4.9508,3.05716 -5.71167,3.81599 -11.61359,8.32096 -17.0824,12.37532 -13.11105,9.75568 -26.01531,19.7712 -39.06067,29.61346 -5.99002,4.51925 -16.83568,12.73159 -23.53358,17.00324 -2.41913,1.54283 -5.01215,2.79434 -7.51823,4.19151 -1.98701,0.22517 -4.01443,1.13341 -5.96103,0.6755 -0.73517,-0.17295 -0.75365,-1.481 -0.5309,-2.20265 0.57063,-1.84867 1.65827,-3.51929 2.78301,-5.09351 1.86161,-2.60557 4.0021,-5.00432 6.13696,-7.39115 6.73921,-7.53463 12.53449,-12.98591 19.83073,-20.17357 4.30922,-3.97499 8.54992,-8.02557 12.92765,-11.92497 10.44143,-9.30057 18.39378,-15.84312 29.43023,-24.47553 13.19825,-10.32332 26.69638,-20.34298 41.29786,-28.62404 4.86848,-2.50954 14.36646,-8.75911 20.56457,-6.83426 0.64467,0.20021 0.89281,1.25479 0.69789,1.90108 -0.76968,2.55203 -6.12042,7.28956 -7.26335,8.43794 -22.2892,19.25259 -45.94422,37.10912 -71.45185,51.89724 -7.24816,3.63407 -17.55957,9.53369 -25.84733,10.88571 -1.78685,0.2915 -6.14018,0.96498 -6.83725,-0.79704 -0.19559,-0.49441 0.28753,-1.02377 0.43129,-1.53566 3.31025,-3.7478 6.33274,-5.91097 10.50425,-8.80558 8.15317,-5.65748 16.50178,-11.05011 24.96916,-16.22236 10.5848,-6.12881 21.14137,-12.22658 32.24539,-17.38756 4.90933,-2.28178 11.38859,-5.15114 16.80622,-6.4465 2.40527,-0.5751 4.88988,-0.74387 7.33482,-1.1158 0.82426,0.0546 4.55053,-0.42524 4.97837,1.5899 0.40351,1.90057 -2.7374,5.11046 -3.41727,5.84044 -3.71024,3.98377 -7.46138,6.93386 -11.64464,10.50882 -2.96505,2.3648 -5.88911,4.78191 -8.89513,7.09438 -11.76172,9.04803 -24.00063,17.38878 -36.44036,25.46991 -4.49224,2.91826 -8.9655,5.86898 -13.53921,8.65782 -4.37926,2.67026 -8.87553,5.14371 -13.3133,7.71557 -14.66662,7.58117 -31.74562,17.53964 -48.86521,17.04547 -1.48081,-0.0427 -2.90903,-0.56214 -4.36354,-0.84322 -0.80848,-0.68474 -1.86467,-1.15531 -2.42544,-2.05423 -1.21381,-1.94577 -0.36299,-4.53125 0.50884,-6.31276 3.01861,-6.1683 8.58507,-10.79235 13.3052,-15.54728 2.64415,-2.13967 5.18756,-4.4102 7.93245,-6.41901 16.76516,-12.26926 35.95051,-21.03273 55.60692,-27.49568 3.82796,-1.02924 7.6289,-2.16484 11.48389,-3.0877 9.89035,-2.3677 19.91,-4.00271 30.09216,-4.21699 2.19912,-0.0463 4.40968,-0.0139 6.59441,0.2415 1.66239,0.19433 3.26581,0.73469 4.89871,1.10204 1.05998,0.54513 2.27754,0.85668 3.17995,1.63538 5.32828,4.5978 -5.53615,15.16505 -8.06195,18.17346 -1.93439,1.78136 -3.77732,3.66746 -5.80317,5.34407 -10.68613,8.84392 -23.78394,16.43791 -36.2086,22.52086 -3.41891,1.67386 -6.94105,3.12808 -10.41157,4.69211 -3.31437,1.22195 -6.58708,2.56343 -9.94309,3.66585 -11.85537,3.89438 -24.41986,6.07862 -36.90197,4.8526 -1.99468,-0.48496 -4.20501,-0.67977 -5.83516,-2.12264 -2.76705,-2.44914 -0.26384,-6.32548 1.26978,-8.56934 1.36739,-1.82942 2.71559,-3.72214 4.26137,-5.40991 4.38566,-4.78851 9.57826,-8.71137 14.96611,-12.29416 9.77435,-6.1412 19.76935,-12.26054 30.67585,-16.17364 5.60758,-1.47161 11.60721,-2.50745 17.25164,-0.58378 1.00681,0.54692 1.9743,0.85896 2.54504,1.95201 0.95576,1.83043 -0.12537,4.93267 -0.39248,6.81317 -1.20434,3.87565 -2.93875,7.67344 -5.67943,10.71095 -3.82923,3.77366 -8.14925,7.01912 -12.89754,9.55703 -1.76118,0.81198 -3.25897,1.57149 -5.11809,2.15172 -3.77056,1.17678 -7.64612,1.47369 -11.57913,1.32562 -3.24036,-0.22702 -6.78402,-0.39583 -9.35338,-2.62122 -1.43263,-2.18607 -1.79897,-4.5761 -1.57493,-7.17012 0.4765,-3.08486 1.31684,-6.02119 3.06205,-8.65611 1.6178,-3.13911 3.63149,-4.1949 6.68593,-5.74563 3.23182,-1.66275 6.43432,-3.3716 9.64484,-5.08031 0,0 1.94721,0.20791 1.94721,0.20791 z"
       inkscape:connector-curvature="0" />
  </g>
</svg>
